<?xml version="1.0" encoding="UTF-8" standalone="no"?>
<!DOCTYPE svg PUBLIC "-//W3C//DTD SVG 1.1//EN"
 "http://www.w3.org/Graphics/SVG/1.1/DTD/svg11.dtd">
<!-- Generated by graphviz version 2.50.0 (0)
 -->
<!-- Pages: 1 -->
<svg width="3313pt" height="334pt"
 viewBox="0.00 0.00 3312.69 334.00" xmlns="http://www.w3.org/2000/svg" xmlns:xlink="http://www.w3.org/1999/xlink">
<g id="graph0" class="graph" transform="scale(1 1) rotate(0) translate(4 330)">
<polygon fill="white" stroke="transparent" points="-4,4 -4,-330 3308.69,-330 3308.69,4 -4,4"/>
<!-- 139691119067248 -->
<g id="node1" class="node">
<title>139691119067248</title>
<polygon fill="none" stroke="black" points="1123,-168.5 1123,-237.5 1218,-237.5 1218,-168.5 1123,-168.5"/>
<text text-anchor="middle" x="1170.5" y="-222.3" font-family="Times,serif" font-size="14.00">4</text>
<polyline fill="none" stroke="black" points="1123,-214.5 1218,-214.5 "/>
<text text-anchor="middle" x="1170.5" y="-199.3" font-family="Times,serif" font-size="14.00">data 4.000</text>
<polyline fill="none" stroke="black" points="1123,-191.5 1218,-191.5 "/>
<text text-anchor="middle" x="1170.5" y="-176.3" font-family="Times,serif" font-size="14.00">grad 0.000</text>
</g>
<!-- 139691119067296+ -->
<g id="node3" class="node">
<title>139691119067296+</title>
<ellipse fill="none" stroke="black" cx="1281" cy="-159" rx="27" ry="18"/>
<text text-anchor="middle" x="1281" y="-155.3" font-family="Times,serif" font-size="14.00">+</text>
</g>
<!-- 139691119067248&#45;&gt;139691119067296+ -->
<g id="edge34" class="edge">
<title>139691119067248&#45;&gt;139691119067296+</title>
<path fill="none" stroke="black" d="M1218.14,-184.08C1228.29,-179.97 1238.8,-175.71 1248.21,-171.89"/>
<polygon fill="black" stroke="black" points="1249.61,-175.1 1257.56,-168.1 1246.98,-168.61 1249.61,-175.1"/>
</g>
<!-- 139691119067296 -->
<g id="node2" class="node">
<title>139691119067296</title>
<polygon fill="none" stroke="black" points="1344,-124.5 1344,-193.5 1439,-193.5 1439,-124.5 1344,-124.5"/>
<text text-anchor="middle" x="1391.5" y="-178.3" font-family="Times,serif" font-size="14.00"> </text>
<polyline fill="none" stroke="black" points="1344,-170.5 1439,-170.5 "/>
<text text-anchor="middle" x="1391.5" y="-155.3" font-family="Times,serif" font-size="14.00">data 4.000</text>
<polyline fill="none" stroke="black" points="1344,-147.5 1439,-147.5 "/>
<text text-anchor="middle" x="1391.5" y="-132.3" font-family="Times,serif" font-size="14.00">grad 0.000</text>
</g>
<!-- 139691119067488^3 -->
<g id="node5" class="node">
<title>139691119067488^3</title>
<ellipse fill="none" stroke="black" cx="1502" cy="-190" rx="27" ry="18"/>
<text text-anchor="middle" x="1502" y="-186.3" font-family="Times,serif" font-size="14.00">^3</text>
</g>
<!-- 139691119067296&#45;&gt;139691119067488^3 -->
<g id="edge27" class="edge">
<title>139691119067296&#45;&gt;139691119067488^3</title>
<path fill="none" stroke="black" d="M1439.14,-172.33C1448.47,-174.99 1458.11,-177.75 1466.92,-180.26"/>
<polygon fill="black" stroke="black" points="1466.23,-183.71 1476.81,-183.09 1468.16,-176.98 1466.23,-183.71"/>
</g>
<!-- 139691119067872* -->
<g id="node11" class="node">
<title>139691119067872*</title>
<ellipse fill="none" stroke="black" cx="1951.6" cy="-167" rx="27" ry="18"/>
<text text-anchor="middle" x="1951.6" y="-163.3" font-family="Times,serif" font-size="14.00">*</text>
</g>
<!-- 139691119067296&#45;&gt;139691119067872* -->
<g id="edge32" class="edge">
<title>139691119067296&#45;&gt;139691119067872*</title>
<path fill="none" stroke="black" d="M1439.23,-151.34C1484.16,-144.65 1554.03,-136 1615,-136 1615,-136 1615,-136 1731.3,-136 1797.01,-136 1872.73,-149.82 1915.8,-159"/>
<polygon fill="black" stroke="black" points="1915.25,-162.46 1925.76,-161.17 1916.73,-155.62 1915.25,-162.46"/>
</g>
<!-- 139691119067296+&#45;&gt;139691119067296 -->
<g id="edge1" class="edge">
<title>139691119067296+&#45;&gt;139691119067296</title>
<path fill="none" stroke="black" d="M1308.26,-159C1316.01,-159 1324.81,-159 1333.69,-159"/>
<polygon fill="black" stroke="black" points="1333.71,-162.5 1343.71,-159 1333.71,-155.5 1333.71,-162.5"/>
</g>
<!-- 139691119067488 -->
<g id="node4" class="node">
<title>139691119067488</title>
<polygon fill="none" stroke="black" points="1565,-164.5 1565,-233.5 1667,-233.5 1667,-164.5 1565,-164.5"/>
<text text-anchor="middle" x="1616" y="-218.3" font-family="Times,serif" font-size="14.00"> </text>
<polyline fill="none" stroke="black" points="1565,-210.5 1667,-210.5 "/>
<text text-anchor="middle" x="1616" y="-195.3" font-family="Times,serif" font-size="14.00">data 64.000</text>
<polyline fill="none" stroke="black" points="1565,-187.5 1667,-187.5 "/>
<text text-anchor="middle" x="1616" y="-172.3" font-family="Times,serif" font-size="14.00">grad 0.000</text>
</g>
<!-- 139691119067680^&#45;1 -->
<g id="node7" class="node">
<title>139691119067680^&#45;1</title>
<ellipse fill="none" stroke="black" cx="1730.3" cy="-199" rx="27.1" ry="18"/>
<text text-anchor="middle" x="1730.3" y="-195.3" font-family="Times,serif" font-size="14.00">^&#45;1</text>
</g>
<!-- 139691119067488&#45;&gt;139691119067680^&#45;1 -->
<g id="edge39" class="edge">
<title>139691119067488&#45;&gt;139691119067680^&#45;1</title>
<path fill="none" stroke="black" d="M1667.24,-199C1675.76,-199 1684.47,-199 1692.57,-199"/>
<polygon fill="black" stroke="black" points="1692.79,-202.5 1702.79,-199 1692.79,-195.5 1692.79,-202.5"/>
</g>
<!-- 139691119067488^3&#45;&gt;139691119067488 -->
<g id="edge2" class="edge">
<title>139691119067488^3&#45;&gt;139691119067488</title>
<path fill="none" stroke="black" d="M1528.98,-192.09C1536.77,-192.71 1545.67,-193.43 1554.71,-194.16"/>
<polygon fill="black" stroke="black" points="1554.69,-197.66 1564.94,-194.98 1555.25,-190.69 1554.69,-197.66"/>
</g>
<!-- 139691119067680 -->
<g id="node6" class="node">
<title>139691119067680</title>
<polygon fill="none" stroke="black" points="1793.6,-164.5 1793.6,-233.5 1888.6,-233.5 1888.6,-164.5 1793.6,-164.5"/>
<text text-anchor="middle" x="1841.1" y="-218.3" font-family="Times,serif" font-size="14.00"> </text>
<polyline fill="none" stroke="black" points="1793.6,-210.5 1888.6,-210.5 "/>
<text text-anchor="middle" x="1841.1" y="-195.3" font-family="Times,serif" font-size="14.00">data 0.016</text>
<polyline fill="none" stroke="black" points="1793.6,-187.5 1888.6,-187.5 "/>
<text text-anchor="middle" x="1841.1" y="-172.3" font-family="Times,serif" font-size="14.00">grad 0.000</text>
</g>
<!-- 139691119067680&#45;&gt;139691119067872* -->
<g id="edge31" class="edge">
<title>139691119067680&#45;&gt;139691119067872*</title>
<path fill="none" stroke="black" d="M1888.74,-185.24C1898.25,-182.44 1908.09,-179.54 1917.04,-176.9"/>
<polygon fill="black" stroke="black" points="1918.1,-180.23 1926.7,-174.05 1916.12,-173.52 1918.1,-180.23"/>
</g>
<!-- 139691119067680^&#45;1&#45;&gt;139691119067680 -->
<g id="edge3" class="edge">
<title>139691119067680^&#45;1&#45;&gt;139691119067680</title>
<path fill="none" stroke="black" d="M1757.63,-199C1765.4,-199 1774.22,-199 1783.13,-199"/>
<polygon fill="black" stroke="black" points="1783.18,-202.5 1793.18,-199 1783.18,-195.5 1783.18,-202.5"/>
</g>
<!-- 139691121060496 -->
<g id="node8" class="node">
<title>139691121060496</title>
<polygon fill="none" stroke="black" points="222.5,-212.5 222.5,-281.5 317.5,-281.5 317.5,-212.5 222.5,-212.5"/>
<text text-anchor="middle" x="270" y="-266.3" font-family="Times,serif" font-size="14.00"> </text>
<polyline fill="none" stroke="black" points="222.5,-258.5 317.5,-258.5 "/>
<text text-anchor="middle" x="270" y="-243.3" font-family="Times,serif" font-size="14.00">data 5.000</text>
<polyline fill="none" stroke="black" points="222.5,-235.5 317.5,-235.5 "/>
<text text-anchor="middle" x="270" y="-220.3" font-family="Times,serif" font-size="14.00">grad 0.000</text>
</g>
<!-- 139691119021264* -->
<g id="node21" class="node">
<title>139691119021264*</title>
<ellipse fill="none" stroke="black" cx="382" cy="-203" rx="27" ry="18"/>
<text text-anchor="middle" x="382" y="-199.3" font-family="Times,serif" font-size="14.00">*</text>
</g>
<!-- 139691121060496&#45;&gt;139691119021264* -->
<g id="edge19" class="edge">
<title>139691121060496&#45;&gt;139691119021264*</title>
<path fill="none" stroke="black" d="M317.65,-228.34C328.28,-224.09 339.33,-219.67 349.17,-215.73"/>
<polygon fill="black" stroke="black" points="350.57,-218.94 358.55,-211.98 347.97,-212.44 350.57,-218.94"/>
</g>
<!-- 139691121060496+ -->
<g id="node9" class="node">
<title>139691121060496+</title>
<ellipse fill="none" stroke="black" cx="158" cy="-247" rx="27" ry="18"/>
<text text-anchor="middle" x="158" y="-243.3" font-family="Times,serif" font-size="14.00">+</text>
</g>
<!-- 139691121060496+&#45;&gt;139691121060496 -->
<g id="edge4" class="edge">
<title>139691121060496+&#45;&gt;139691121060496</title>
<path fill="none" stroke="black" d="M185.07,-247C193.28,-247 202.69,-247 212.18,-247"/>
<polygon fill="black" stroke="black" points="212.45,-250.5 222.45,-247 212.45,-243.5 212.45,-250.5"/>
</g>
<!-- 139691119067872 -->
<g id="node10" class="node">
<title>139691119067872</title>
<polygon fill="none" stroke="black" points="2014.6,-132.5 2014.6,-201.5 2109.6,-201.5 2109.6,-132.5 2014.6,-132.5"/>
<text text-anchor="middle" x="2062.1" y="-186.3" font-family="Times,serif" font-size="14.00"> </text>
<polyline fill="none" stroke="black" points="2014.6,-178.5 2109.6,-178.5 "/>
<text text-anchor="middle" x="2062.1" y="-163.3" font-family="Times,serif" font-size="14.00">data 0.062</text>
<polyline fill="none" stroke="black" points="2014.6,-155.5 2109.6,-155.5 "/>
<text text-anchor="middle" x="2062.1" y="-140.3" font-family="Times,serif" font-size="14.00">grad 0.000</text>
</g>
<!-- 139691119068112* -->
<g id="node17" class="node">
<title>139691119068112*</title>
<ellipse fill="none" stroke="black" cx="2172.6" cy="-123" rx="27" ry="18"/>
<text text-anchor="middle" x="2172.6" y="-119.3" font-family="Times,serif" font-size="14.00">*</text>
</g>
<!-- 139691119067872&#45;&gt;139691119068112* -->
<g id="edge21" class="edge">
<title>139691119067872&#45;&gt;139691119068112*</title>
<path fill="none" stroke="black" d="M2109.74,-148.08C2119.88,-143.97 2130.39,-139.71 2139.8,-135.89"/>
<polygon fill="black" stroke="black" points="2141.2,-139.1 2149.16,-132.1 2138.57,-132.61 2141.2,-139.1"/>
</g>
<!-- 139691119067872*&#45;&gt;139691119067872 -->
<g id="edge5" class="edge">
<title>139691119067872*&#45;&gt;139691119067872</title>
<path fill="none" stroke="black" d="M1978.86,-167C1986.61,-167 1995.4,-167 2004.29,-167"/>
<polygon fill="black" stroke="black" points="2004.31,-170.5 2014.31,-167 2004.31,-163.5 2004.31,-170.5"/>
</g>
<!-- 139691121060640 -->
<g id="node12" class="node">
<title>139691121060640</title>
<polygon fill="none" stroke="black" points="221,-124.5 221,-193.5 319,-193.5 319,-124.5 221,-124.5"/>
<text text-anchor="middle" x="270" y="-178.3" font-family="Times,serif" font-size="14.00">d</text>
<polyline fill="none" stroke="black" points="221,-170.5 319,-170.5 "/>
<text text-anchor="middle" x="270" y="-155.3" font-family="Times,serif" font-size="14.00">data &#45;1.000</text>
<polyline fill="none" stroke="black" points="221,-147.5 319,-147.5 "/>
<text text-anchor="middle" x="270" y="-132.3" font-family="Times,serif" font-size="14.00">grad 0.000</text>
</g>
<!-- 139691121060640&#45;&gt;139691119021264* -->
<g id="edge18" class="edge">
<title>139691121060640&#45;&gt;139691119021264*</title>
<path fill="none" stroke="black" d="M319.25,-178.3C329.25,-182.3 339.56,-186.42 348.82,-190.13"/>
<polygon fill="black" stroke="black" points="347.8,-193.49 358.39,-193.96 350.4,-186.99 347.8,-193.49"/>
</g>
<!-- 139691121107824 -->
<g id="node13" class="node">
<title>139691121107824</title>
<polygon fill="none" stroke="black" points="0,-256.5 0,-325.5 95,-325.5 95,-256.5 0,-256.5"/>
<text text-anchor="middle" x="47.5" y="-310.3" font-family="Times,serif" font-size="14.00">b</text>
<polyline fill="none" stroke="black" points="0,-302.5 95,-302.5 "/>
<text text-anchor="middle" x="47.5" y="-287.3" font-family="Times,serif" font-size="14.00">data 3.000</text>
<polyline fill="none" stroke="black" points="0,-279.5 95,-279.5 "/>
<text text-anchor="middle" x="47.5" y="-264.3" font-family="Times,serif" font-size="14.00">grad 0.000</text>
</g>
<!-- 139691121107824&#45;&gt;139691121060496+ -->
<g id="edge26" class="edge">
<title>139691121107824&#45;&gt;139691121060496+</title>
<path fill="none" stroke="black" d="M95.14,-272.08C105.29,-267.97 115.8,-263.71 125.21,-259.89"/>
<polygon fill="black" stroke="black" points="126.61,-263.1 134.56,-256.1 123.98,-256.61 126.61,-263.1"/>
</g>
<!-- 139691121107872 -->
<g id="node14" class="node">
<title>139691121107872</title>
<polygon fill="none" stroke="black" points="0,-168.5 0,-237.5 95,-237.5 95,-168.5 0,-168.5"/>
<text text-anchor="middle" x="47.5" y="-222.3" font-family="Times,serif" font-size="14.00"> </text>
<polyline fill="none" stroke="black" points="0,-214.5 95,-214.5 "/>
<text text-anchor="middle" x="47.5" y="-199.3" font-family="Times,serif" font-size="14.00">data 2.000</text>
<polyline fill="none" stroke="black" points="0,-191.5 95,-191.5 "/>
<text text-anchor="middle" x="47.5" y="-176.3" font-family="Times,serif" font-size="14.00">grad 0.000</text>
</g>
<!-- 139691121107872&#45;&gt;139691121060496+ -->
<g id="edge40" class="edge">
<title>139691121107872&#45;&gt;139691121060496+</title>
<path fill="none" stroke="black" d="M95.14,-221.92C105.29,-226.03 115.8,-230.29 125.21,-234.11"/>
<polygon fill="black" stroke="black" points="123.98,-237.39 134.56,-237.9 126.61,-230.9 123.98,-237.39"/>
</g>
<!-- 139691119068064 -->
<g id="node15" class="node">
<title>139691119068064</title>
<polygon fill="none" stroke="black" points="2014.6,-44.5 2014.6,-113.5 2109.6,-113.5 2109.6,-44.5 2014.6,-44.5"/>
<text text-anchor="middle" x="2062.1" y="-98.3" font-family="Times,serif" font-size="14.00">2</text>
<polyline fill="none" stroke="black" points="2014.6,-90.5 2109.6,-90.5 "/>
<text text-anchor="middle" x="2062.1" y="-75.3" font-family="Times,serif" font-size="14.00">data 2.000</text>
<polyline fill="none" stroke="black" points="2014.6,-67.5 2109.6,-67.5 "/>
<text text-anchor="middle" x="2062.1" y="-52.3" font-family="Times,serif" font-size="14.00">grad 0.000</text>
</g>
<!-- 139691119068064&#45;&gt;139691119068112* -->
<g id="edge35" class="edge">
<title>139691119068064&#45;&gt;139691119068112*</title>
<path fill="none" stroke="black" d="M2109.74,-97.92C2119.88,-102.03 2130.39,-106.29 2139.8,-110.11"/>
<polygon fill="black" stroke="black" points="2138.57,-113.39 2149.16,-113.9 2141.2,-106.9 2138.57,-113.39"/>
</g>
<!-- 139691119068112 -->
<g id="node16" class="node">
<title>139691119068112</title>
<polygon fill="none" stroke="black" points="2235.6,-88.5 2235.6,-157.5 2330.6,-157.5 2330.6,-88.5 2235.6,-88.5"/>
<text text-anchor="middle" x="2283.1" y="-142.3" font-family="Times,serif" font-size="14.00"> </text>
<polyline fill="none" stroke="black" points="2235.6,-134.5 2330.6,-134.5 "/>
<text text-anchor="middle" x="2283.1" y="-119.3" font-family="Times,serif" font-size="14.00">data 0.125</text>
<polyline fill="none" stroke="black" points="2235.6,-111.5 2330.6,-111.5 "/>
<text text-anchor="middle" x="2283.1" y="-96.3" font-family="Times,serif" font-size="14.00">grad 0.000</text>
</g>
<!-- 139691119068256e^0.125 -->
<g id="node19" class="node">
<title>139691119068256e^0.125</title>
<ellipse fill="none" stroke="black" cx="2416.64" cy="-123" rx="50.09" ry="18"/>
<text text-anchor="middle" x="2416.64" y="-119.3" font-family="Times,serif" font-size="14.00">e^0.125</text>
</g>
<!-- 139691119068112&#45;&gt;139691119068256e^0.125 -->
<g id="edge28" class="edge">
<title>139691119068112&#45;&gt;139691119068256e^0.125</title>
<path fill="none" stroke="black" d="M2330.84,-123C2339.03,-123 2347.65,-123 2356.14,-123"/>
<polygon fill="black" stroke="black" points="2356.37,-126.5 2366.37,-123 2356.37,-119.5 2356.37,-126.5"/>
</g>
<!-- 139691119068112*&#45;&gt;139691119068112 -->
<g id="edge6" class="edge">
<title>139691119068112*&#45;&gt;139691119068112</title>
<path fill="none" stroke="black" d="M2199.86,-123C2207.61,-123 2216.4,-123 2225.29,-123"/>
<polygon fill="black" stroke="black" points="2225.31,-126.5 2235.31,-123 2225.31,-119.5 2225.31,-126.5"/>
</g>
<!-- 139691119068256 -->
<g id="node18" class="node">
<title>139691119068256</title>
<polygon fill="none" stroke="black" points="2504.19,-88.5 2504.19,-157.5 2599.19,-157.5 2599.19,-88.5 2504.19,-88.5"/>
<text text-anchor="middle" x="2551.69" y="-142.3" font-family="Times,serif" font-size="14.00"> </text>
<polyline fill="none" stroke="black" points="2504.19,-134.5 2599.19,-134.5 "/>
<text text-anchor="middle" x="2551.69" y="-119.3" font-family="Times,serif" font-size="14.00">data 1.133</text>
<polyline fill="none" stroke="black" points="2504.19,-111.5 2599.19,-111.5 "/>
<text text-anchor="middle" x="2551.69" y="-96.3" font-family="Times,serif" font-size="14.00">grad 0.000</text>
</g>
<!-- 139691119068496+ -->
<g id="node24" class="node">
<title>139691119068496+</title>
<ellipse fill="none" stroke="black" cx="2663.69" cy="-158" rx="27" ry="18"/>
<text text-anchor="middle" x="2663.69" y="-154.3" font-family="Times,serif" font-size="14.00">+</text>
</g>
<!-- 139691119068256&#45;&gt;139691119068496+ -->
<g id="edge24" class="edge">
<title>139691119068256&#45;&gt;139691119068496+</title>
<path fill="none" stroke="black" d="M2599.34,-137.84C2609.4,-141.04 2619.84,-144.37 2629.28,-147.37"/>
<polygon fill="black" stroke="black" points="2628.47,-150.78 2639.06,-150.48 2630.59,-144.11 2628.47,-150.78"/>
</g>
<!-- 139691119068736+ -->
<g id="node30" class="node">
<title>139691119068736+</title>
<ellipse fill="none" stroke="black" cx="2663.69" cy="-87" rx="27" ry="18"/>
<text text-anchor="middle" x="2663.69" y="-83.3" font-family="Times,serif" font-size="14.00">+</text>
</g>
<!-- 139691119068256&#45;&gt;139691119068736+ -->
<g id="edge25" class="edge">
<title>139691119068256&#45;&gt;139691119068736+</title>
<path fill="none" stroke="black" d="M2599.34,-107.73C2609.4,-104.44 2619.84,-101.02 2629.28,-97.93"/>
<polygon fill="black" stroke="black" points="2630.64,-101.17 2639.06,-94.73 2628.46,-94.52 2630.64,-101.17"/>
</g>
<!-- 139691119068256e^0.125&#45;&gt;139691119068256 -->
<g id="edge7" class="edge">
<title>139691119068256e^0.125&#45;&gt;139691119068256</title>
<path fill="none" stroke="black" d="M2466.8,-123C2475.62,-123 2484.88,-123 2493.9,-123"/>
<polygon fill="black" stroke="black" points="2493.93,-126.5 2503.93,-123 2493.93,-119.5 2493.93,-126.5"/>
</g>
<!-- 139691119021264 -->
<g id="node20" class="node">
<title>139691119021264</title>
<polygon fill="none" stroke="black" points="445,-168.5 445,-237.5 543,-237.5 543,-168.5 445,-168.5"/>
<text text-anchor="middle" x="494" y="-222.3" font-family="Times,serif" font-size="14.00"> </text>
<polyline fill="none" stroke="black" points="445,-214.5 543,-214.5 "/>
<text text-anchor="middle" x="494" y="-199.3" font-family="Times,serif" font-size="14.00">data &#45;5.000</text>
<polyline fill="none" stroke="black" points="445,-191.5 543,-191.5 "/>
<text text-anchor="middle" x="494" y="-176.3" font-family="Times,serif" font-size="14.00">grad 0.000</text>
</g>
<!-- 139691119021504* -->
<g id="node27" class="node">
<title>139691119021504*</title>
<ellipse fill="none" stroke="black" cx="606" cy="-159" rx="27" ry="18"/>
<text text-anchor="middle" x="606" y="-155.3" font-family="Times,serif" font-size="14.00">*</text>
</g>
<!-- 139691119021264&#45;&gt;139691119021504* -->
<g id="edge33" class="edge">
<title>139691119021264&#45;&gt;139691119021504*</title>
<path fill="none" stroke="black" d="M543.25,-183.7C553.25,-179.7 563.56,-175.58 572.82,-171.87"/>
<polygon fill="black" stroke="black" points="574.4,-175.01 582.39,-168.04 571.8,-168.51 574.4,-175.01"/>
</g>
<!-- 139691119021264*&#45;&gt;139691119021264 -->
<g id="edge8" class="edge">
<title>139691119021264*&#45;&gt;139691119021264</title>
<path fill="none" stroke="black" d="M409.07,-203C416.82,-203 425.65,-203 434.6,-203"/>
<polygon fill="black" stroke="black" points="434.7,-206.5 444.7,-203 434.7,-199.5 434.7,-206.5"/>
</g>
<!-- 139691119068448 -->
<g id="node22" class="node">
<title>139691119068448</title>
<polygon fill="none" stroke="black" points="2502.69,-176.5 2502.69,-245.5 2600.69,-245.5 2600.69,-176.5 2502.69,-176.5"/>
<text text-anchor="middle" x="2551.69" y="-230.3" font-family="Times,serif" font-size="14.00">&#45;1</text>
<polyline fill="none" stroke="black" points="2502.69,-222.5 2600.69,-222.5 "/>
<text text-anchor="middle" x="2551.69" y="-207.3" font-family="Times,serif" font-size="14.00">data &#45;1.000</text>
<polyline fill="none" stroke="black" points="2502.69,-199.5 2600.69,-199.5 "/>
<text text-anchor="middle" x="2551.69" y="-184.3" font-family="Times,serif" font-size="14.00">grad 0.000</text>
</g>
<!-- 139691119068448&#45;&gt;139691119068496+ -->
<g id="edge16" class="edge">
<title>139691119068448&#45;&gt;139691119068496+</title>
<path fill="none" stroke="black" d="M2600.93,-187.75C2611.5,-182.66 2622.4,-177.41 2632.05,-172.76"/>
<polygon fill="black" stroke="black" points="2633.73,-175.84 2641.22,-168.34 2630.69,-169.53 2633.73,-175.84"/>
</g>
<!-- 139691119068496 -->
<g id="node23" class="node">
<title>139691119068496</title>
<polygon fill="none" stroke="black" points="2857.69,-123.5 2857.69,-192.5 2952.69,-192.5 2952.69,-123.5 2857.69,-123.5"/>
<text text-anchor="middle" x="2905.19" y="-177.3" font-family="Times,serif" font-size="14.00"> </text>
<polyline fill="none" stroke="black" points="2857.69,-169.5 2952.69,-169.5 "/>
<text text-anchor="middle" x="2905.19" y="-154.3" font-family="Times,serif" font-size="14.00">data 0.133</text>
<polyline fill="none" stroke="black" points="2857.69,-146.5 2952.69,-146.5 "/>
<text text-anchor="middle" x="2905.19" y="-131.3" font-family="Times,serif" font-size="14.00">grad 0.000</text>
</g>
<!-- 139691119069120* -->
<g id="node39" class="node">
<title>139691119069120*</title>
<ellipse fill="none" stroke="black" cx="3146.69" cy="-122" rx="27" ry="18"/>
<text text-anchor="middle" x="3146.69" y="-118.3" font-family="Times,serif" font-size="14.00">*</text>
</g>
<!-- 139691119068496&#45;&gt;139691119069120* -->
<g id="edge37" class="edge">
<title>139691119068496&#45;&gt;139691119069120*</title>
<path fill="none" stroke="black" d="M2953.05,-152.94C2988.92,-148.82 3039.57,-142.47 3083.69,-135 3092.57,-133.5 3102.12,-131.62 3111,-129.77"/>
<polygon fill="black" stroke="black" points="3111.98,-133.14 3121.03,-127.63 3110.52,-126.29 3111.98,-133.14"/>
</g>
<!-- 139691119068496+&#45;&gt;139691119068496 -->
<g id="edge9" class="edge">
<title>139691119068496+&#45;&gt;139691119068496</title>
<path fill="none" stroke="black" d="M2690.77,-158C2728.12,-158 2797.8,-158 2847.37,-158"/>
<polygon fill="black" stroke="black" points="2847.62,-161.5 2857.62,-158 2847.62,-154.5 2847.62,-161.5"/>
</g>
<!-- 139691119021456 -->
<g id="node25" class="node">
<title>139691119021456</title>
<polygon fill="none" stroke="black" points="446.5,-80.5 446.5,-149.5 541.5,-149.5 541.5,-80.5 446.5,-80.5"/>
<text text-anchor="middle" x="494" y="-134.3" font-family="Times,serif" font-size="14.00">2</text>
<polyline fill="none" stroke="black" points="446.5,-126.5 541.5,-126.5 "/>
<text text-anchor="middle" x="494" y="-111.3" font-family="Times,serif" font-size="14.00">data 2.000</text>
<polyline fill="none" stroke="black" points="446.5,-103.5 541.5,-103.5 "/>
<text text-anchor="middle" x="494" y="-88.3" font-family="Times,serif" font-size="14.00">grad 0.000</text>
</g>
<!-- 139691119021456&#45;&gt;139691119021504* -->
<g id="edge17" class="edge">
<title>139691119021456&#45;&gt;139691119021504*</title>
<path fill="none" stroke="black" d="M541.65,-133.66C552.28,-137.91 563.33,-142.33 573.17,-146.27"/>
<polygon fill="black" stroke="black" points="571.97,-149.56 582.55,-150.02 574.57,-143.06 571.97,-149.56"/>
</g>
<!-- 139691119021504 -->
<g id="node26" class="node">
<title>139691119021504</title>
<polygon fill="none" stroke="black" points="669,-124.5 669,-193.5 776,-193.5 776,-124.5 669,-124.5"/>
<text text-anchor="middle" x="722.5" y="-178.3" font-family="Times,serif" font-size="14.00"> </text>
<polyline fill="none" stroke="black" points="669,-170.5 776,-170.5 "/>
<text text-anchor="middle" x="722.5" y="-155.3" font-family="Times,serif" font-size="14.00">data &#45;10.000</text>
<polyline fill="none" stroke="black" points="669,-147.5 776,-147.5 "/>
<text text-anchor="middle" x="722.5" y="-132.3" font-family="Times,serif" font-size="14.00">grad 0.000</text>
</g>
<!-- 139691119021744+ -->
<g id="node33" class="node">
<title>139691119021744+</title>
<ellipse fill="none" stroke="black" cx="839" cy="-115" rx="27" ry="18"/>
<text text-anchor="middle" x="839" y="-111.3" font-family="Times,serif" font-size="14.00">+</text>
</g>
<!-- 139691119021504&#45;&gt;139691119021744+ -->
<g id="edge36" class="edge">
<title>139691119021504&#45;&gt;139691119021744+</title>
<path fill="none" stroke="black" d="M776.06,-138.8C786.16,-134.92 796.46,-130.96 805.68,-127.42"/>
<polygon fill="black" stroke="black" points="807.13,-130.61 815.21,-123.76 804.62,-124.08 807.13,-130.61"/>
</g>
<!-- 139691119021504*&#45;&gt;139691119021504 -->
<g id="edge10" class="edge">
<title>139691119021504*&#45;&gt;139691119021504</title>
<path fill="none" stroke="black" d="M633.27,-159C640.94,-159 649.68,-159 658.61,-159"/>
<polygon fill="black" stroke="black" points="658.71,-162.5 668.71,-159 658.71,-155.5 658.71,-162.5"/>
</g>
<!-- 139691119068688 -->
<g id="node28" class="node">
<title>139691119068688</title>
<polygon fill="none" stroke="black" points="2504.19,-0.5 2504.19,-69.5 2599.19,-69.5 2599.19,-0.5 2504.19,-0.5"/>
<text text-anchor="middle" x="2551.69" y="-54.3" font-family="Times,serif" font-size="14.00">1</text>
<polyline fill="none" stroke="black" points="2504.19,-46.5 2599.19,-46.5 "/>
<text text-anchor="middle" x="2551.69" y="-31.3" font-family="Times,serif" font-size="14.00">data 1.000</text>
<polyline fill="none" stroke="black" points="2504.19,-23.5 2599.19,-23.5 "/>
<text text-anchor="middle" x="2551.69" y="-8.3" font-family="Times,serif" font-size="14.00">grad 0.000</text>
</g>
<!-- 139691119068688&#45;&gt;139691119068736+ -->
<g id="edge20" class="edge">
<title>139691119068688&#45;&gt;139691119068736+</title>
<path fill="none" stroke="black" d="M2599.34,-57.05C2610.34,-62.25 2621.8,-67.67 2631.9,-72.45"/>
<polygon fill="black" stroke="black" points="2630.57,-75.69 2641.11,-76.8 2633.56,-69.36 2630.57,-75.69"/>
</g>
<!-- 139691119068736 -->
<g id="node29" class="node">
<title>139691119068736</title>
<polygon fill="none" stroke="black" points="2726.69,-52.5 2726.69,-121.5 2821.69,-121.5 2821.69,-52.5 2726.69,-52.5"/>
<text text-anchor="middle" x="2774.19" y="-106.3" font-family="Times,serif" font-size="14.00"> </text>
<polyline fill="none" stroke="black" points="2726.69,-98.5 2821.69,-98.5 "/>
<text text-anchor="middle" x="2774.19" y="-83.3" font-family="Times,serif" font-size="14.00">data 2.133</text>
<polyline fill="none" stroke="black" points="2726.69,-75.5 2821.69,-75.5 "/>
<text text-anchor="middle" x="2774.19" y="-60.3" font-family="Times,serif" font-size="14.00">grad 0.000</text>
</g>
<!-- 139691119068928^&#45;1 -->
<g id="node35" class="node">
<title>139691119068928^&#45;1</title>
<ellipse fill="none" stroke="black" cx="2905.19" cy="-87" rx="27.1" ry="18"/>
<text text-anchor="middle" x="2905.19" y="-83.3" font-family="Times,serif" font-size="14.00">^&#45;1</text>
</g>
<!-- 139691119068736&#45;&gt;139691119068928^&#45;1 -->
<g id="edge38" class="edge">
<title>139691119068736&#45;&gt;139691119068928^&#45;1</title>
<path fill="none" stroke="black" d="M2821.76,-87C2836.71,-87 2853.06,-87 2867.23,-87"/>
<polygon fill="black" stroke="black" points="2867.57,-90.5 2877.57,-87 2867.57,-83.5 2867.57,-90.5"/>
</g>
<!-- 139691119068736+&#45;&gt;139691119068736 -->
<g id="edge11" class="edge">
<title>139691119068736+&#45;&gt;139691119068736</title>
<path fill="none" stroke="black" d="M2690.95,-87C2698.7,-87 2707.49,-87 2716.38,-87"/>
<polygon fill="black" stroke="black" points="2716.4,-90.5 2726.4,-87 2716.4,-83.5 2716.4,-90.5"/>
</g>
<!-- 139691119021696 -->
<g id="node31" class="node">
<title>139691119021696</title>
<polygon fill="none" stroke="black" points="671.5,-36.5 671.5,-105.5 773.5,-105.5 773.5,-36.5 671.5,-36.5"/>
<text text-anchor="middle" x="722.5" y="-90.3" font-family="Times,serif" font-size="14.00">10</text>
<polyline fill="none" stroke="black" points="671.5,-82.5 773.5,-82.5 "/>
<text text-anchor="middle" x="722.5" y="-67.3" font-family="Times,serif" font-size="14.00">data 10.000</text>
<polyline fill="none" stroke="black" points="671.5,-59.5 773.5,-59.5 "/>
<text text-anchor="middle" x="722.5" y="-44.3" font-family="Times,serif" font-size="14.00">grad 0.000</text>
</g>
<!-- 139691119021696&#45;&gt;139691119021744+ -->
<g id="edge23" class="edge">
<title>139691119021696&#45;&gt;139691119021744+</title>
<path fill="none" stroke="black" d="M773.72,-90.3C784.63,-94.49 795.88,-98.81 805.86,-102.65"/>
<polygon fill="black" stroke="black" points="804.77,-105.98 815.36,-106.3 807.28,-99.45 804.77,-105.98"/>
</g>
<!-- 139691119021744 -->
<g id="node32" class="node">
<title>139691119021744</title>
<polygon fill="none" stroke="black" points="902,-80.5 902,-149.5 997,-149.5 997,-80.5 902,-80.5"/>
<text text-anchor="middle" x="949.5" y="-134.3" font-family="Times,serif" font-size="14.00"> </text>
<polyline fill="none" stroke="black" points="902,-126.5 997,-126.5 "/>
<text text-anchor="middle" x="949.5" y="-111.3" font-family="Times,serif" font-size="14.00">data 0.000</text>
<polyline fill="none" stroke="black" points="902,-103.5 997,-103.5 "/>
<text text-anchor="middle" x="949.5" y="-88.3" font-family="Times,serif" font-size="14.00">grad 0.000</text>
</g>
<!-- 139691119021936+ -->
<g id="node37" class="node">
<title>139691119021936+</title>
<ellipse fill="none" stroke="black" cx="1060" cy="-115" rx="27" ry="18"/>
<text text-anchor="middle" x="1060" y="-111.3" font-family="Times,serif" font-size="14.00">+</text>
</g>
<!-- 139691119021744&#45;&gt;139691119021936+ -->
<g id="edge22" class="edge">
<title>139691119021744&#45;&gt;139691119021936+</title>
<path fill="none" stroke="black" d="M997.14,-115C1005.61,-115 1014.33,-115 1022.45,-115"/>
<polygon fill="black" stroke="black" points="1022.72,-118.5 1032.72,-115 1022.72,-111.5 1022.72,-118.5"/>
</g>
<!-- 139691119021744+&#45;&gt;139691119021744 -->
<g id="edge12" class="edge">
<title>139691119021744+&#45;&gt;139691119021744</title>
<path fill="none" stroke="black" d="M866.26,-115C874.01,-115 882.81,-115 891.69,-115"/>
<polygon fill="black" stroke="black" points="891.71,-118.5 901.71,-115 891.71,-111.5 891.71,-118.5"/>
</g>
<!-- 139691119068928 -->
<g id="node34" class="node">
<title>139691119068928</title>
<polygon fill="none" stroke="black" points="2988.69,-56.5 2988.69,-125.5 3083.69,-125.5 3083.69,-56.5 2988.69,-56.5"/>
<text text-anchor="middle" x="3036.19" y="-110.3" font-family="Times,serif" font-size="14.00"> </text>
<polyline fill="none" stroke="black" points="2988.69,-102.5 3083.69,-102.5 "/>
<text text-anchor="middle" x="3036.19" y="-87.3" font-family="Times,serif" font-size="14.00">data 0.469</text>
<polyline fill="none" stroke="black" points="2988.69,-79.5 3083.69,-79.5 "/>
<text text-anchor="middle" x="3036.19" y="-64.3" font-family="Times,serif" font-size="14.00">grad 0.000</text>
</g>
<!-- 139691119068928&#45;&gt;139691119069120* -->
<g id="edge30" class="edge">
<title>139691119068928&#45;&gt;139691119069120*</title>
<path fill="none" stroke="black" d="M3083.83,-104.33C3093.16,-106.99 3102.8,-109.75 3111.6,-112.26"/>
<polygon fill="black" stroke="black" points="3110.92,-115.71 3121.5,-115.09 3112.84,-108.98 3110.92,-115.71"/>
</g>
<!-- 139691119068928^&#45;1&#45;&gt;139691119068928 -->
<g id="edge13" class="edge">
<title>139691119068928^&#45;1&#45;&gt;139691119068928</title>
<path fill="none" stroke="black" d="M2932.6,-87.82C2945.78,-88.23 2962.27,-88.74 2978.15,-89.23"/>
<polygon fill="black" stroke="black" points="2978.35,-92.74 2988.45,-89.55 2978.57,-85.74 2978.35,-92.74"/>
</g>
<!-- 139691119021936 -->
<g id="node36" class="node">
<title>139691119021936</title>
<polygon fill="none" stroke="black" points="1123,-80.5 1123,-149.5 1218,-149.5 1218,-80.5 1123,-80.5"/>
<text text-anchor="middle" x="1170.5" y="-134.3" font-family="Times,serif" font-size="14.00"> </text>
<polyline fill="none" stroke="black" points="1123,-126.5 1218,-126.5 "/>
<text text-anchor="middle" x="1170.5" y="-111.3" font-family="Times,serif" font-size="14.00">data 0.000</text>
<polyline fill="none" stroke="black" points="1123,-103.5 1218,-103.5 "/>
<text text-anchor="middle" x="1170.5" y="-88.3" font-family="Times,serif" font-size="14.00">grad 0.000</text>
</g>
<!-- 139691119021936&#45;&gt;139691119067296+ -->
<g id="edge29" class="edge">
<title>139691119021936&#45;&gt;139691119067296+</title>
<path fill="none" stroke="black" d="M1218.14,-133.92C1228.29,-138.03 1238.8,-142.29 1248.21,-146.11"/>
<polygon fill="black" stroke="black" points="1246.98,-149.39 1257.56,-149.9 1249.61,-142.9 1246.98,-149.39"/>
</g>
<!-- 139691119021936+&#45;&gt;139691119021936 -->
<g id="edge14" class="edge">
<title>139691119021936+&#45;&gt;139691119021936</title>
<path fill="none" stroke="black" d="M1087.26,-115C1095.01,-115 1103.81,-115 1112.69,-115"/>
<polygon fill="black" stroke="black" points="1112.71,-118.5 1122.71,-115 1112.71,-111.5 1112.71,-118.5"/>
</g>
<!-- 139691119069120 -->
<g id="node38" class="node">
<title>139691119069120</title>
<polygon fill="none" stroke="black" points="3209.69,-87.5 3209.69,-156.5 3304.69,-156.5 3304.69,-87.5 3209.69,-87.5"/>
<text text-anchor="middle" x="3257.19" y="-141.3" font-family="Times,serif" font-size="14.00"> </text>
<polyline fill="none" stroke="black" points="3209.69,-133.5 3304.69,-133.5 "/>
<text text-anchor="middle" x="3257.19" y="-118.3" font-family="Times,serif" font-size="14.00">data 0.062</text>
<polyline fill="none" stroke="black" points="3209.69,-110.5 3304.69,-110.5 "/>
<text text-anchor="middle" x="3257.19" y="-95.3" font-family="Times,serif" font-size="14.00">grad 0.000</text>
</g>
<!-- 139691119069120*&#45;&gt;139691119069120 -->
<g id="edge15" class="edge">
<title>139691119069120*&#45;&gt;139691119069120</title>
<path fill="none" stroke="black" d="M3173.95,-122C3181.7,-122 3190.49,-122 3199.38,-122"/>
<polygon fill="black" stroke="black" points="3199.4,-125.5 3209.4,-122 3199.4,-118.5 3199.4,-125.5"/>
</g>
</g>
</svg>
