<?xml version="1.0" encoding="UTF-8" standalone="no"?>
<!DOCTYPE svg PUBLIC "-//W3C//DTD SVG 1.1//EN"
 "http://www.w3.org/Graphics/SVG/1.1/DTD/svg11.dtd">
<!-- Generated by graphviz version 2.50.0 (0)
 -->
<!-- Pages: 1 -->
<svg width="496pt" height="210pt"
 viewBox="0.00 0.00 496.00 210.00" xmlns="http://www.w3.org/2000/svg" xmlns:xlink="http://www.w3.org/1999/xlink">
<g id="graph0" class="graph" transform="scale(1 1) rotate(0) translate(4 206)">
<polygon fill="white" stroke="transparent" points="-4,4 -4,-206 492,-206 492,4 -4,4"/>
<!-- 139974979656720 -->
<g id="node1" class="node">
<title>139974979656720</title>
<polygon fill="none" stroke="black" points="408,-44.5 408,-113.5 488,-113.5 488,-44.5 408,-44.5"/>
<text text-anchor="middle" x="448" y="-98.3" font-family="Times,serif" font-size="14.00">a + b*d</text>
<polyline fill="none" stroke="black" points="408,-90.5 488,-90.5 "/>
<text text-anchor="middle" x="448" y="-75.3" font-family="Times,serif" font-size="14.00">data &#45;5.0</text>
<polyline fill="none" stroke="black" points="408,-67.5 488,-67.5 "/>
<text text-anchor="middle" x="448" y="-52.3" font-family="Times,serif" font-size="14.00">grad 1</text>
</g>
<!-- 139974979656720* -->
<g id="node2" class="node">
<title>139974979656720*</title>
<ellipse fill="none" stroke="black" cx="345" cy="-79" rx="27" ry="18"/>
<text text-anchor="middle" x="345" y="-75.3" font-family="Times,serif" font-size="14.00">*</text>
</g>
<!-- 139974979656720*&#45;&gt;139974979656720 -->
<g id="edge1" class="edge">
<title>139974979656720*&#45;&gt;139974979656720</title>
<path fill="none" stroke="black" d="M372.01,-79C379.82,-79 388.67,-79 397.48,-79"/>
<polygon fill="black" stroke="black" points="397.73,-82.5 407.73,-79 397.73,-75.5 397.73,-82.5"/>
</g>
<!-- 139974982201408 -->
<g id="node3" class="node">
<title>139974982201408</title>
<polygon fill="none" stroke="black" points="201,-88.5 201,-157.5 282,-157.5 282,-88.5 201,-88.5"/>
<text text-anchor="middle" x="241.5" y="-142.3" font-family="Times,serif" font-size="14.00">a + b</text>
<polyline fill="none" stroke="black" points="201,-134.5 282,-134.5 "/>
<text text-anchor="middle" x="241.5" y="-119.3" font-family="Times,serif" font-size="14.00">data 5.0</text>
<polyline fill="none" stroke="black" points="201,-111.5 282,-111.5 "/>
<text text-anchor="middle" x="241.5" y="-96.3" font-family="Times,serif" font-size="14.00">grad &#45;1.0</text>
</g>
<!-- 139974982201408&#45;&gt;139974979656720* -->
<g id="edge5" class="edge">
<title>139974982201408&#45;&gt;139974979656720*</title>
<path fill="none" stroke="black" d="M282.03,-105.86C292.22,-101.45 303.04,-96.76 312.74,-92.55"/>
<polygon fill="black" stroke="black" points="314.22,-95.72 322,-88.54 311.44,-89.3 314.22,-95.72"/>
</g>
<!-- 139974982201408+ -->
<g id="node4" class="node">
<title>139974982201408+</title>
<ellipse fill="none" stroke="black" cx="138" cy="-123" rx="27" ry="18"/>
<text text-anchor="middle" x="138" y="-119.3" font-family="Times,serif" font-size="14.00">+</text>
</g>
<!-- 139974982201408+&#45;&gt;139974982201408 -->
<g id="edge2" class="edge">
<title>139974982201408+&#45;&gt;139974982201408</title>
<path fill="none" stroke="black" d="M165.14,-123C172.91,-123 181.69,-123 190.45,-123"/>
<polygon fill="black" stroke="black" points="190.65,-126.5 200.65,-123 190.65,-119.5 190.65,-126.5"/>
</g>
<!-- 139974982180528 -->
<g id="node5" class="node">
<title>139974982180528</title>
<polygon fill="none" stroke="black" points="201.5,-0.5 201.5,-69.5 281.5,-69.5 281.5,-0.5 201.5,-0.5"/>
<text text-anchor="middle" x="241.5" y="-54.3" font-family="Times,serif" font-size="14.00">d</text>
<polyline fill="none" stroke="black" points="201.5,-46.5 281.5,-46.5 "/>
<text text-anchor="middle" x="241.5" y="-31.3" font-family="Times,serif" font-size="14.00">data &#45;1.0</text>
<polyline fill="none" stroke="black" points="201.5,-23.5 281.5,-23.5 "/>
<text text-anchor="middle" x="241.5" y="-8.3" font-family="Times,serif" font-size="14.00">grad 5.0</text>
</g>
<!-- 139974982180528&#45;&gt;139974979656720* -->
<g id="edge6" class="edge">
<title>139974982180528&#45;&gt;139974979656720*</title>
<path fill="none" stroke="black" d="M281.74,-52.01C291.95,-56.44 302.82,-61.15 312.56,-65.37"/>
<polygon fill="black" stroke="black" points="311.31,-68.64 321.87,-69.41 314.09,-62.22 311.31,-68.64"/>
</g>
<!-- 139974982202272 -->
<g id="node6" class="node">
<title>139974982202272</title>
<polygon fill="none" stroke="black" points="0,-132.5 0,-201.5 75,-201.5 75,-132.5 0,-132.5"/>
<text text-anchor="middle" x="37.5" y="-186.3" font-family="Times,serif" font-size="14.00">b</text>
<polyline fill="none" stroke="black" points="0,-178.5 75,-178.5 "/>
<text text-anchor="middle" x="37.5" y="-163.3" font-family="Times,serif" font-size="14.00">data 3.0</text>
<polyline fill="none" stroke="black" points="0,-155.5 75,-155.5 "/>
<text text-anchor="middle" x="37.5" y="-140.3" font-family="Times,serif" font-size="14.00">grad 0</text>
</g>
<!-- 139974982202272&#45;&gt;139974982201408+ -->
<g id="edge3" class="edge">
<title>139974982202272&#45;&gt;139974982201408+</title>
<path fill="none" stroke="black" d="M75.18,-150.62C85.27,-146.11 96.12,-141.26 105.86,-136.91"/>
<polygon fill="black" stroke="black" points="107.47,-140.02 115.17,-132.75 104.62,-133.63 107.47,-140.02"/>
</g>
<!-- 139974982202320 -->
<g id="node7" class="node">
<title>139974982202320</title>
<polygon fill="none" stroke="black" points="0,-44.5 0,-113.5 75,-113.5 75,-44.5 0,-44.5"/>
<text text-anchor="middle" x="37.5" y="-98.3" font-family="Times,serif" font-size="14.00">a</text>
<polyline fill="none" stroke="black" points="0,-90.5 75,-90.5 "/>
<text text-anchor="middle" x="37.5" y="-75.3" font-family="Times,serif" font-size="14.00">data 2.0</text>
<polyline fill="none" stroke="black" points="0,-67.5 75,-67.5 "/>
<text text-anchor="middle" x="37.5" y="-52.3" font-family="Times,serif" font-size="14.00">grad 0</text>
</g>
<!-- 139974982202320&#45;&gt;139974982201408+ -->
<g id="edge4" class="edge">
<title>139974982202320&#45;&gt;139974982201408+</title>
<path fill="none" stroke="black" d="M75.18,-95.38C85.27,-99.89 96.12,-104.74 105.86,-109.09"/>
<polygon fill="black" stroke="black" points="104.62,-112.37 115.17,-113.25 107.47,-105.98 104.62,-112.37"/>
</g>
</g>
</svg>
