<?xml version="1.0" encoding="UTF-8" standalone="no"?>
<!DOCTYPE svg PUBLIC "-//W3C//DTD SVG 1.1//EN"
 "http://www.w3.org/Graphics/SVG/1.1/DTD/svg11.dtd">
<!-- Generated by graphviz version 2.50.0 (0)
 -->
<!-- Pages: 1 -->
<svg width="1053pt" height="1206pt"
 viewBox="0.00 0.00 1053.00 1206.00" xmlns="http://www.w3.org/2000/svg" xmlns:xlink="http://www.w3.org/1999/xlink">
<g id="graph0" class="graph" transform="scale(1 1) rotate(0) translate(4 1202)">
<polygon fill="white" stroke="transparent" points="-4,4 -4,-1202 1049,-1202 1049,4 -4,4"/>
<!-- 140594606574608 -->
<g id="node1" class="node">
<title>140594606574608</title>
<polygon fill="none" stroke="black" points="158,-436.5 158,-472.5 390,-472.5 390,-436.5 158,-436.5"/>
<text text-anchor="middle" x="168.5" y="-450.8" font-family="Times,serif" font-size="14.00"> </text>
<polyline fill="none" stroke="black" points="179,-436.5 179,-472.5 "/>
<text text-anchor="middle" x="232.5" y="-450.8" font-family="Times,serif" font-size="14.00">data &#45;1.0000</text>
<polyline fill="none" stroke="black" points="286,-436.5 286,-472.5 "/>
<text text-anchor="middle" x="338" y="-450.8" font-family="Times,serif" font-size="14.00">grad 0.1464</text>
</g>
<!-- 140594606574656+ -->
<g id="node3" class="node">
<title>140594606574656+</title>
<ellipse fill="none" stroke="black" cx="461" cy="-382" rx="27" ry="18"/>
<text text-anchor="middle" x="461" y="-378.3" font-family="Times,serif" font-size="14.00">+</text>
</g>
<!-- 140594606574608&#45;&gt;140594606574656+ -->
<g id="edge26" class="edge">
<title>140594606574608&#45;&gt;140594606574656+</title>
<path fill="none" stroke="black" d="M319.27,-436.43C352.97,-423.73 398.18,-406.69 428.38,-395.3"/>
<polygon fill="black" stroke="black" points="429.89,-398.47 438.01,-391.67 427.42,-391.92 429.89,-398.47"/>
</g>
<!-- 140594606574656 -->
<g id="node2" class="node">
<title>140594606574656</title>
<polygon fill="none" stroke="black" points="334.5,-218.5 334.5,-254.5 587.5,-254.5 587.5,-218.5 334.5,-218.5"/>
<text text-anchor="middle" x="358" y="-232.8" font-family="Times,serif" font-size="14.00">e &#45; 1</text>
<polyline fill="none" stroke="black" points="381.5,-218.5 381.5,-254.5 "/>
<text text-anchor="middle" x="432.5" y="-232.8" font-family="Times,serif" font-size="14.00">data 4.8284</text>
<polyline fill="none" stroke="black" points="483.5,-218.5 483.5,-254.5 "/>
<text text-anchor="middle" x="535.5" y="-232.8" font-family="Times,serif" font-size="14.00">grad 0.1464</text>
</g>
<!-- 140594606575280* -->
<g id="node8" class="node">
<title>140594606575280*</title>
<ellipse fill="none" stroke="black" cx="547" cy="-91" rx="27" ry="18"/>
<text text-anchor="middle" x="547" y="-87.3" font-family="Times,serif" font-size="14.00">*</text>
</g>
<!-- 140594606574656&#45;&gt;140594606575280* -->
<g id="edge11" class="edge">
<title>140594606574656&#45;&gt;140594606575280*</title>
<path fill="none" stroke="black" d="M467.09,-218.44C474.14,-199.69 486.77,-169.04 502,-145 508.89,-134.12 517.86,-123.1 525.98,-113.94"/>
<polygon fill="black" stroke="black" points="528.67,-116.18 532.81,-106.43 523.49,-111.47 528.67,-116.18"/>
</g>
<!-- 140594606574656+&#45;&gt;140594606574656 -->
<g id="edge1" class="edge">
<title>140594606574656+&#45;&gt;140594606574656</title>
<path fill="none" stroke="black" d="M461,-363.98C461,-339.49 461,-294.06 461,-264.83"/>
<polygon fill="black" stroke="black" points="464.5,-264.5 461,-254.5 457.5,-264.5 464.5,-264.5"/>
</g>
<!-- 140594606573648 -->
<g id="node4" class="node">
<title>140594606573648</title>
<polygon fill="none" stroke="black" points="241,-1016.5 241,-1052.5 509,-1052.5 509,-1016.5 241,-1016.5"/>
<text text-anchor="middle" x="272" y="-1030.8" font-family="Times,serif" font-size="14.00">x2*w2</text>
<polyline fill="none" stroke="black" points="303,-1016.5 303,-1052.5 "/>
<text text-anchor="middle" x="354" y="-1030.8" font-family="Times,serif" font-size="14.00">data 0.0000</text>
<polyline fill="none" stroke="black" points="405,-1016.5 405,-1052.5 "/>
<text text-anchor="middle" x="457" y="-1030.8" font-family="Times,serif" font-size="14.00">grad 0.5000</text>
</g>
<!-- 140594606573792+ -->
<g id="node12" class="node">
<title>140594606573792+</title>
<ellipse fill="none" stroke="black" cx="519" cy="-962" rx="27" ry="18"/>
<text text-anchor="middle" x="519" y="-958.3" font-family="Times,serif" font-size="14.00">+</text>
</g>
<!-- 140594606573648&#45;&gt;140594606573792+ -->
<g id="edge22" class="edge">
<title>140594606573648&#45;&gt;140594606573792+</title>
<path fill="none" stroke="black" d="M409.86,-1016.43C434,-1004.61 465.81,-989.04 488.86,-977.76"/>
<polygon fill="black" stroke="black" points="490.4,-980.9 497.84,-973.36 487.32,-974.61 490.4,-980.9"/>
</g>
<!-- 140594606573648* -->
<g id="node5" class="node">
<title>140594606573648*</title>
<ellipse fill="none" stroke="black" cx="375" cy="-1107" rx="27" ry="18"/>
<text text-anchor="middle" x="375" y="-1103.3" font-family="Times,serif" font-size="14.00">*</text>
</g>
<!-- 140594606573648*&#45;&gt;140594606573648 -->
<g id="edge2" class="edge">
<title>140594606573648*&#45;&gt;140594606573648</title>
<path fill="none" stroke="black" d="M375,-1088.93C375,-1081.17 375,-1071.78 375,-1063.06"/>
<polygon fill="black" stroke="black" points="378.5,-1062.9 375,-1052.9 371.5,-1062.9 378.5,-1062.9"/>
</g>
<!-- 140594606574224 -->
<g id="node6" class="node">
<title>140594606574224</title>
<polygon fill="none" stroke="black" points="309.5,-726.5 309.5,-762.5 536.5,-762.5 536.5,-726.5 309.5,-726.5"/>
<text text-anchor="middle" x="320" y="-740.8" font-family="Times,serif" font-size="14.00"> </text>
<polyline fill="none" stroke="black" points="330.5,-726.5 330.5,-762.5 "/>
<text text-anchor="middle" x="381.5" y="-740.8" font-family="Times,serif" font-size="14.00">data 2.0000</text>
<polyline fill="none" stroke="black" points="432.5,-726.5 432.5,-762.5 "/>
<text text-anchor="middle" x="484.5" y="-740.8" font-family="Times,serif" font-size="14.00">grad 0.2203</text>
</g>
<!-- 140594606574272* -->
<g id="node10" class="node">
<title>140594606574272*</title>
<ellipse fill="none" stroke="black" cx="547" cy="-672" rx="27" ry="18"/>
<text text-anchor="middle" x="547" y="-668.3" font-family="Times,serif" font-size="14.00">*</text>
</g>
<!-- 140594606574224&#45;&gt;140594606574272* -->
<g id="edge19" class="edge">
<title>140594606574224&#45;&gt;140594606574272*</title>
<path fill="none" stroke="black" d="M453.02,-726.43C472.82,-715.18 498.61,-700.51 518.17,-689.39"/>
<polygon fill="black" stroke="black" points="519.98,-692.39 526.94,-684.41 516.52,-686.31 519.98,-692.39"/>
</g>
<!-- 140594606575280 -->
<g id="node7" class="node">
<title>140594606575280</title>
<polygon fill="none" stroke="black" points="431.5,-0.5 431.5,-36.5 662.5,-36.5 662.5,-0.5 431.5,-0.5"/>
<text text-anchor="middle" x="444" y="-14.8" font-family="Times,serif" font-size="14.00">o</text>
<polyline fill="none" stroke="black" points="456.5,-0.5 456.5,-36.5 "/>
<text text-anchor="middle" x="507.5" y="-14.8" font-family="Times,serif" font-size="14.00">data 0.7071</text>
<polyline fill="none" stroke="black" points="558.5,-0.5 558.5,-36.5 "/>
<text text-anchor="middle" x="610.5" y="-14.8" font-family="Times,serif" font-size="14.00">grad 1.0000</text>
</g>
<!-- 140594606575280*&#45;&gt;140594606575280 -->
<g id="edge3" class="edge">
<title>140594606575280*&#45;&gt;140594606575280</title>
<path fill="none" stroke="black" d="M547,-72.93C547,-65.17 547,-55.78 547,-47.06"/>
<polygon fill="black" stroke="black" points="550.5,-46.9 547,-36.9 543.5,-46.9 550.5,-46.9"/>
</g>
<!-- 140594606574272 -->
<g id="node9" class="node">
<title>140594606574272</title>
<polygon fill="none" stroke="black" points="423.5,-581.5 423.5,-617.5 670.5,-617.5 670.5,-581.5 423.5,-581.5"/>
<text text-anchor="middle" x="444" y="-595.8" font-family="Times,serif" font-size="14.00">2*n</text>
<polyline fill="none" stroke="black" points="464.5,-581.5 464.5,-617.5 "/>
<text text-anchor="middle" x="515.5" y="-595.8" font-family="Times,serif" font-size="14.00">data 1.7627</text>
<polyline fill="none" stroke="black" points="566.5,-581.5 566.5,-617.5 "/>
<text text-anchor="middle" x="618.5" y="-595.8" font-family="Times,serif" font-size="14.00">grad 0.2500</text>
</g>
<!-- 140594606574416e^ -->
<g id="node21" class="node">
<title>140594606574416e^</title>
<ellipse fill="none" stroke="black" cx="547" cy="-527" rx="27" ry="18"/>
<text text-anchor="middle" x="547" y="-523.3" font-family="Times,serif" font-size="14.00">e^</text>
</g>
<!-- 140594606574272&#45;&gt;140594606574416e^ -->
<g id="edge23" class="edge">
<title>140594606574272&#45;&gt;140594606574416e^</title>
<path fill="none" stroke="black" d="M547,-581.43C547,-573.67 547,-564.28 547,-555.56"/>
<polygon fill="black" stroke="black" points="550.5,-555.4 547,-545.4 543.5,-555.4 550.5,-555.4"/>
</g>
<!-- 140594606574272*&#45;&gt;140594606574272 -->
<g id="edge4" class="edge">
<title>140594606574272*&#45;&gt;140594606574272</title>
<path fill="none" stroke="black" d="M547,-653.93C547,-646.17 547,-636.78 547,-628.06"/>
<polygon fill="black" stroke="black" points="550.5,-627.9 547,-617.9 543.5,-627.9 550.5,-627.9"/>
</g>
<!-- 140594606573792 -->
<g id="node11" class="node">
<title>140594606573792</title>
<polygon fill="none" stroke="black" points="349.5,-871.5 349.5,-907.5 688.5,-907.5 688.5,-871.5 349.5,-871.5"/>
<text text-anchor="middle" x="413.5" y="-885.8" font-family="Times,serif" font-size="14.00">x1*w1 + x2*w2</text>
<polyline fill="none" stroke="black" points="477.5,-871.5 477.5,-907.5 "/>
<text text-anchor="middle" x="531" y="-885.8" font-family="Times,serif" font-size="14.00">data &#45;6.0000</text>
<polyline fill="none" stroke="black" points="584.5,-871.5 584.5,-907.5 "/>
<text text-anchor="middle" x="636.5" y="-885.8" font-family="Times,serif" font-size="14.00">grad 0.5000</text>
</g>
<!-- 140594606574032+ -->
<g id="node26" class="node">
<title>140594606574032+</title>
<ellipse fill="none" stroke="black" cx="671" cy="-817" rx="27" ry="18"/>
<text text-anchor="middle" x="671" y="-813.3" font-family="Times,serif" font-size="14.00">+</text>
</g>
<!-- 140594606573792&#45;&gt;140594606574032+ -->
<g id="edge17" class="edge">
<title>140594606573792&#45;&gt;140594606574032+</title>
<path fill="none" stroke="black" d="M555.79,-871.43C581.7,-859.42 615.98,-843.52 640.39,-832.2"/>
<polygon fill="black" stroke="black" points="641.95,-835.33 649.55,-827.95 639.01,-828.98 641.95,-835.33"/>
</g>
<!-- 140594606573792+&#45;&gt;140594606573792 -->
<g id="edge5" class="edge">
<title>140594606573792+&#45;&gt;140594606573792</title>
<path fill="none" stroke="black" d="M519,-943.93C519,-936.17 519,-926.78 519,-918.06"/>
<polygon fill="black" stroke="black" points="522.5,-917.9 519,-907.9 515.5,-917.9 522.5,-917.9"/>
</g>
<!-- 140594608643808 -->
<g id="node13" class="node">
<title>140594608643808</title>
<polygon fill="none" stroke="black" points="0,-1161.5 0,-1197.5 244,-1197.5 244,-1161.5 0,-1161.5"/>
<text text-anchor="middle" x="19" y="-1175.8" font-family="Times,serif" font-size="14.00">w2</text>
<polyline fill="none" stroke="black" points="38,-1161.5 38,-1197.5 "/>
<text text-anchor="middle" x="89" y="-1175.8" font-family="Times,serif" font-size="14.00">data 1.0000</text>
<polyline fill="none" stroke="black" points="140,-1161.5 140,-1197.5 "/>
<text text-anchor="middle" x="192" y="-1175.8" font-family="Times,serif" font-size="14.00">grad 0.0000</text>
</g>
<!-- 140594608643808&#45;&gt;140594606573648* -->
<g id="edge15" class="edge">
<title>140594608643808&#45;&gt;140594606573648*</title>
<path fill="none" stroke="black" d="M183.24,-1161.43C232.62,-1147.68 300.25,-1128.83 340.6,-1117.59"/>
<polygon fill="black" stroke="black" points="341.79,-1120.89 350.49,-1114.83 339.91,-1114.14 341.79,-1120.89"/>
</g>
<!-- 140594606574848 -->
<g id="node14" class="node">
<title>140594606574848</title>
<polygon fill="none" stroke="black" points="704.5,-436.5 704.5,-472.5 935.5,-472.5 935.5,-436.5 704.5,-436.5"/>
<text text-anchor="middle" x="715" y="-450.8" font-family="Times,serif" font-size="14.00"> </text>
<polyline fill="none" stroke="black" points="725.5,-436.5 725.5,-472.5 "/>
<text text-anchor="middle" x="776.5" y="-450.8" font-family="Times,serif" font-size="14.00">data 1.0000</text>
<polyline fill="none" stroke="black" points="827.5,-436.5 827.5,-472.5 "/>
<text text-anchor="middle" x="881.5" y="-450.8" font-family="Times,serif" font-size="14.00">grad &#45;0.1036</text>
</g>
<!-- 140594606574896+ -->
<g id="node18" class="node">
<title>140594606574896+</title>
<ellipse fill="none" stroke="black" cx="633" cy="-382" rx="27" ry="18"/>
<text text-anchor="middle" x="633" y="-378.3" font-family="Times,serif" font-size="14.00">+</text>
</g>
<!-- 140594606574848&#45;&gt;140594606574896+ -->
<g id="edge20" class="edge">
<title>140594606574848&#45;&gt;140594606574896+</title>
<path fill="none" stroke="black" d="M774.73,-436.43C741.03,-423.73 695.82,-406.69 665.62,-395.3"/>
<polygon fill="black" stroke="black" points="666.58,-391.92 655.99,-391.67 664.11,-398.47 666.58,-391.92"/>
</g>
<!-- 140594606573840 -->
<g id="node15" class="node">
<title>140594606573840</title>
<polygon fill="none" stroke="black" points="707,-871.5 707,-907.5 939,-907.5 939,-871.5 707,-871.5"/>
<text text-anchor="middle" x="720" y="-885.8" font-family="Times,serif" font-size="14.00">b</text>
<polyline fill="none" stroke="black" points="733,-871.5 733,-907.5 "/>
<text text-anchor="middle" x="784" y="-885.8" font-family="Times,serif" font-size="14.00">data 6.8814</text>
<polyline fill="none" stroke="black" points="835,-871.5 835,-907.5 "/>
<text text-anchor="middle" x="887" y="-885.8" font-family="Times,serif" font-size="14.00">grad 0.5000</text>
</g>
<!-- 140594606573840&#45;&gt;140594606574032+ -->
<g id="edge13" class="edge">
<title>140594606573840&#45;&gt;140594606574032+</title>
<path fill="none" stroke="black" d="M786.21,-871.43C760.3,-859.42 726.02,-843.52 701.61,-832.2"/>
<polygon fill="black" stroke="black" points="702.99,-828.98 692.45,-827.95 700.05,-835.33 702.99,-828.98"/>
</g>
<!-- 140594608643856 -->
<g id="node16" class="node">
<title>140594608643856</title>
<polygon fill="none" stroke="black" points="533.5,-1161.5 533.5,-1197.5 782.5,-1197.5 782.5,-1161.5 533.5,-1161.5"/>
<text text-anchor="middle" x="552.5" y="-1175.8" font-family="Times,serif" font-size="14.00">w1</text>
<polyline fill="none" stroke="black" points="571.5,-1161.5 571.5,-1197.5 "/>
<text text-anchor="middle" x="625" y="-1175.8" font-family="Times,serif" font-size="14.00">data &#45;3.0000</text>
<polyline fill="none" stroke="black" points="678.5,-1161.5 678.5,-1197.5 "/>
<text text-anchor="middle" x="730.5" y="-1175.8" font-family="Times,serif" font-size="14.00">grad 1.0000</text>
</g>
<!-- 140594608641888* -->
<g id="node23" class="node">
<title>140594608641888*</title>
<ellipse fill="none" stroke="black" cx="664" cy="-1107" rx="27" ry="18"/>
<text text-anchor="middle" x="664" y="-1103.3" font-family="Times,serif" font-size="14.00">*</text>
</g>
<!-- 140594608643856&#45;&gt;140594608641888* -->
<g id="edge25" class="edge">
<title>140594608643856&#45;&gt;140594608641888*</title>
<path fill="none" stroke="black" d="M659.45,-1161.43C660.11,-1153.67 660.91,-1144.28 661.65,-1135.56"/>
<polygon fill="black" stroke="black" points="665.16,-1135.66 662.52,-1125.4 658.18,-1135.07 665.16,-1135.66"/>
</g>
<!-- 140594606574896 -->
<g id="node17" class="node">
<title>140594606574896</title>
<polygon fill="none" stroke="black" points="500.5,-291.5 500.5,-327.5 765.5,-327.5 765.5,-291.5 500.5,-291.5"/>
<text text-anchor="middle" x="528" y="-305.8" font-family="Times,serif" font-size="14.00">e + 1</text>
<polyline fill="none" stroke="black" points="555.5,-291.5 555.5,-327.5 "/>
<text text-anchor="middle" x="606.5" y="-305.8" font-family="Times,serif" font-size="14.00">data 6.8284</text>
<polyline fill="none" stroke="black" points="657.5,-291.5 657.5,-327.5 "/>
<text text-anchor="middle" x="711.5" y="-305.8" font-family="Times,serif" font-size="14.00">grad &#45;0.1036</text>
</g>
<!-- 140594606575088^&#45;1 -->
<g id="node28" class="node">
<title>140594606575088^&#45;1</title>
<ellipse fill="none" stroke="black" cx="633" cy="-236.5" rx="27.1" ry="18"/>
<text text-anchor="middle" x="633" y="-232.8" font-family="Times,serif" font-size="14.00">^&#45;1</text>
</g>
<!-- 140594606574896&#45;&gt;140594606575088^&#45;1 -->
<g id="edge16" class="edge">
<title>140594606574896&#45;&gt;140594606575088^&#45;1</title>
<path fill="none" stroke="black" d="M633,-291.31C633,-283.29 633,-273.55 633,-264.57"/>
<polygon fill="black" stroke="black" points="636.5,-264.53 633,-254.53 629.5,-264.53 636.5,-264.53"/>
</g>
<!-- 140594606574896+&#45;&gt;140594606574896 -->
<g id="edge6" class="edge">
<title>140594606574896+&#45;&gt;140594606574896</title>
<path fill="none" stroke="black" d="M633,-363.93C633,-356.17 633,-346.78 633,-338.06"/>
<polygon fill="black" stroke="black" points="636.5,-337.9 633,-327.9 629.5,-337.9 636.5,-337.9"/>
</g>
<!-- 140594608643904 -->
<g id="node19" class="node">
<title>140594608643904</title>
<polygon fill="none" stroke="black" points="262,-1161.5 262,-1197.5 502,-1197.5 502,-1161.5 262,-1161.5"/>
<text text-anchor="middle" x="279" y="-1175.8" font-family="Times,serif" font-size="14.00">x2</text>
<polyline fill="none" stroke="black" points="296,-1161.5 296,-1197.5 "/>
<text text-anchor="middle" x="347" y="-1175.8" font-family="Times,serif" font-size="14.00">data 0.0000</text>
<polyline fill="none" stroke="black" points="398,-1161.5 398,-1197.5 "/>
<text text-anchor="middle" x="450" y="-1175.8" font-family="Times,serif" font-size="14.00">grad 0.5000</text>
</g>
<!-- 140594608643904&#45;&gt;140594606573648* -->
<g id="edge24" class="edge">
<title>140594608643904&#45;&gt;140594606573648*</title>
<path fill="none" stroke="black" d="M380.31,-1161.43C379.53,-1153.67 378.6,-1144.28 377.74,-1135.56"/>
<polygon fill="black" stroke="black" points="381.2,-1135 376.73,-1125.4 374.23,-1135.7 381.2,-1135"/>
</g>
<!-- 140594606574416 -->
<g id="node20" class="node">
<title>140594606574416</title>
<polygon fill="none" stroke="black" points="408,-436.5 408,-472.5 686,-472.5 686,-436.5 408,-436.5"/>
<text text-anchor="middle" x="444" y="-450.8" font-family="Times,serif" font-size="14.00">e^(2*n)</text>
<polyline fill="none" stroke="black" points="480,-436.5 480,-472.5 "/>
<text text-anchor="middle" x="531" y="-450.8" font-family="Times,serif" font-size="14.00">data 5.8284</text>
<polyline fill="none" stroke="black" points="582,-436.5 582,-472.5 "/>
<text text-anchor="middle" x="634" y="-450.8" font-family="Times,serif" font-size="14.00">grad 0.0429</text>
</g>
<!-- 140594606574416&#45;&gt;140594606574656+ -->
<g id="edge14" class="edge">
<title>140594606574416&#45;&gt;140594606574656+</title>
<path fill="none" stroke="black" d="M526.18,-436.43C513.87,-426.34 498.21,-413.5 485.33,-402.94"/>
<polygon fill="black" stroke="black" points="487.28,-400.02 477.32,-396.38 482.84,-405.43 487.28,-400.02"/>
</g>
<!-- 140594606574416&#45;&gt;140594606574896+ -->
<g id="edge21" class="edge">
<title>140594606574416&#45;&gt;140594606574896+</title>
<path fill="none" stroke="black" d="M567.82,-436.43C580.13,-426.34 595.79,-413.5 608.67,-402.94"/>
<polygon fill="black" stroke="black" points="611.16,-405.43 616.68,-396.38 606.72,-400.02 611.16,-405.43"/>
</g>
<!-- 140594606574416e^&#45;&gt;140594606574416 -->
<g id="edge7" class="edge">
<title>140594606574416e^&#45;&gt;140594606574416</title>
<path fill="none" stroke="black" d="M547,-508.93C547,-501.17 547,-491.78 547,-483.06"/>
<polygon fill="black" stroke="black" points="550.5,-482.9 547,-472.9 543.5,-482.9 550.5,-482.9"/>
</g>
<!-- 140594608641888 -->
<g id="node22" class="node">
<title>140594608641888</title>
<polygon fill="none" stroke="black" points="527.5,-1016.5 527.5,-1052.5 800.5,-1052.5 800.5,-1016.5 527.5,-1016.5"/>
<text text-anchor="middle" x="558.5" y="-1030.8" font-family="Times,serif" font-size="14.00">x1*w1</text>
<polyline fill="none" stroke="black" points="589.5,-1016.5 589.5,-1052.5 "/>
<text text-anchor="middle" x="643" y="-1030.8" font-family="Times,serif" font-size="14.00">data &#45;6.0000</text>
<polyline fill="none" stroke="black" points="696.5,-1016.5 696.5,-1052.5 "/>
<text text-anchor="middle" x="748.5" y="-1030.8" font-family="Times,serif" font-size="14.00">grad 0.5000</text>
</g>
<!-- 140594608641888&#45;&gt;140594606573792+ -->
<g id="edge28" class="edge">
<title>140594608641888&#45;&gt;140594606573792+</title>
<path fill="none" stroke="black" d="M628.9,-1016.43C604.59,-1004.61 572.56,-989.04 549.35,-977.76"/>
<polygon fill="black" stroke="black" points="550.83,-974.58 540.3,-973.36 547.77,-980.88 550.83,-974.58"/>
</g>
<!-- 140594608641888*&#45;&gt;140594608641888 -->
<g id="edge8" class="edge">
<title>140594608641888*&#45;&gt;140594608641888</title>
<path fill="none" stroke="black" d="M664,-1088.93C664,-1081.17 664,-1071.78 664,-1063.06"/>
<polygon fill="black" stroke="black" points="667.5,-1062.9 664,-1052.9 660.5,-1062.9 667.5,-1062.9"/>
</g>
<!-- 140594608594272 -->
<g id="node24" class="node">
<title>140594608594272</title>
<polygon fill="none" stroke="black" points="801,-1161.5 801,-1197.5 1045,-1197.5 1045,-1161.5 801,-1161.5"/>
<text text-anchor="middle" x="818" y="-1175.8" font-family="Times,serif" font-size="14.00">x1</text>
<polyline fill="none" stroke="black" points="835,-1161.5 835,-1197.5 "/>
<text text-anchor="middle" x="886" y="-1175.8" font-family="Times,serif" font-size="14.00">data 2.0000</text>
<polyline fill="none" stroke="black" points="937,-1161.5 937,-1197.5 "/>
<text text-anchor="middle" x="991" y="-1175.8" font-family="Times,serif" font-size="14.00">grad &#45;1.5000</text>
</g>
<!-- 140594608594272&#45;&gt;140594608641888* -->
<g id="edge12" class="edge">
<title>140594608594272&#45;&gt;140594608641888*</title>
<path fill="none" stroke="black" d="M860.3,-1161.43C809.38,-1147.57 739.47,-1128.54 698.28,-1117.33"/>
<polygon fill="black" stroke="black" points="699.03,-1113.91 688.46,-1114.66 697.19,-1120.66 699.03,-1113.91"/>
</g>
<!-- 140594606574032 -->
<g id="node25" class="node">
<title>140594606574032</title>
<polygon fill="none" stroke="black" points="555,-726.5 555,-762.5 787,-762.5 787,-726.5 555,-726.5"/>
<text text-anchor="middle" x="568" y="-740.8" font-family="Times,serif" font-size="14.00">n</text>
<polyline fill="none" stroke="black" points="581,-726.5 581,-762.5 "/>
<text text-anchor="middle" x="632" y="-740.8" font-family="Times,serif" font-size="14.00">data 0.8814</text>
<polyline fill="none" stroke="black" points="683,-726.5 683,-762.5 "/>
<text text-anchor="middle" x="735" y="-740.8" font-family="Times,serif" font-size="14.00">grad 0.5000</text>
</g>
<!-- 140594606574032&#45;&gt;140594606574272* -->
<g id="edge18" class="edge">
<title>140594606574032&#45;&gt;140594606574272*</title>
<path fill="none" stroke="black" d="M640.98,-726.43C621.18,-715.18 595.39,-700.51 575.83,-689.39"/>
<polygon fill="black" stroke="black" points="577.48,-686.31 567.06,-684.41 574.02,-692.39 577.48,-686.31"/>
</g>
<!-- 140594606574032+&#45;&gt;140594606574032 -->
<g id="edge9" class="edge">
<title>140594606574032+&#45;&gt;140594606574032</title>
<path fill="none" stroke="black" d="M671,-798.93C671,-791.17 671,-781.78 671,-773.06"/>
<polygon fill="black" stroke="black" points="674.5,-772.9 671,-762.9 667.5,-772.9 674.5,-772.9"/>
</g>
<!-- 140594606575088 -->
<g id="node27" class="node">
<title>140594606575088</title>
<polygon fill="none" stroke="black" points="511.5,-145.5 511.5,-181.5 738.5,-181.5 738.5,-145.5 511.5,-145.5"/>
<text text-anchor="middle" x="522" y="-159.8" font-family="Times,serif" font-size="14.00"> </text>
<polyline fill="none" stroke="black" points="532.5,-145.5 532.5,-181.5 "/>
<text text-anchor="middle" x="583.5" y="-159.8" font-family="Times,serif" font-size="14.00">data 0.1464</text>
<polyline fill="none" stroke="black" points="634.5,-145.5 634.5,-181.5 "/>
<text text-anchor="middle" x="686.5" y="-159.8" font-family="Times,serif" font-size="14.00">grad 4.8284</text>
</g>
<!-- 140594606575088&#45;&gt;140594606575280* -->
<g id="edge27" class="edge">
<title>140594606575088&#45;&gt;140594606575280*</title>
<path fill="none" stroke="black" d="M606.12,-145.43C595.2,-135.57 581.39,-123.08 569.86,-112.66"/>
<polygon fill="black" stroke="black" points="572.07,-109.95 562.31,-105.84 567.38,-115.14 572.07,-109.95"/>
</g>
<!-- 140594606575088^&#45;1&#45;&gt;140594606575088 -->
<g id="edge10" class="edge">
<title>140594606575088^&#45;1&#45;&gt;140594606575088</title>
<path fill="none" stroke="black" d="M631.06,-218.31C630.16,-210.29 629.06,-200.55 628.05,-191.57"/>
<polygon fill="black" stroke="black" points="631.52,-191.07 626.92,-181.53 624.56,-191.86 631.52,-191.07"/>
</g>
</g>
</svg>
