<?xml version="1.0" encoding="UTF-8" standalone="no"?>
<!DOCTYPE svg PUBLIC "-//W3C//DTD SVG 1.1//EN"
 "http://www.w3.org/Graphics/SVG/1.1/DTD/svg11.dtd">
<!-- Generated by graphviz version 2.50.0 (0)
 -->
<!-- Pages: 1 -->
<svg width="1191pt" height="1206pt"
 viewBox="0.00 0.00 1191.00 1206.00" xmlns="http://www.w3.org/2000/svg" xmlns:xlink="http://www.w3.org/1999/xlink">
<g id="graph0" class="graph" transform="scale(1 1) rotate(0) translate(4 1202)">
<polygon fill="white" stroke="transparent" points="-4,4 -4,-1202 1187,-1202 1187,4 -4,4"/>
<!-- 140091733444112 -->
<g id="node1" class="node">
<title>140091733444112</title>
<polygon fill="none" stroke="black" points="495.5,-871.5 495.5,-907.5 834.5,-907.5 834.5,-871.5 495.5,-871.5"/>
<text text-anchor="middle" x="559.5" y="-885.8" font-family="Times,serif" font-size="14.00">x1*w1 + x2*w2</text>
<polyline fill="none" stroke="black" points="623.5,-871.5 623.5,-907.5 "/>
<text text-anchor="middle" x="677" y="-885.8" font-family="Times,serif" font-size="14.00">data &#45;6.0000</text>
<polyline fill="none" stroke="black" points="730.5,-871.5 730.5,-907.5 "/>
<text text-anchor="middle" x="782.5" y="-885.8" font-family="Times,serif" font-size="14.00">grad 0.5000</text>
</g>
<!-- 140091733444352+ -->
<g id="node11" class="node">
<title>140091733444352+</title>
<ellipse fill="none" stroke="black" cx="513" cy="-817" rx="27" ry="18"/>
<text text-anchor="middle" x="513" y="-813.3" font-family="Times,serif" font-size="14.00">+</text>
</g>
<!-- 140091733444112&#45;&gt;140091733444352+ -->
<g id="edge24" class="edge">
<title>140091733444112&#45;&gt;140091733444352+</title>
<path fill="none" stroke="black" d="M628.21,-871.43C602.3,-859.42 568.02,-843.52 543.61,-832.2"/>
<polygon fill="black" stroke="black" points="544.99,-828.98 534.45,-827.95 542.05,-835.33 544.99,-828.98"/>
</g>
<!-- 140091733444112+ -->
<g id="node2" class="node">
<title>140091733444112+</title>
<ellipse fill="none" stroke="black" cx="665" cy="-962" rx="27" ry="18"/>
<text text-anchor="middle" x="665" y="-958.3" font-family="Times,serif" font-size="14.00">+</text>
</g>
<!-- 140091733444112+&#45;&gt;140091733444112 -->
<g id="edge1" class="edge">
<title>140091733444112+&#45;&gt;140091733444112</title>
<path fill="none" stroke="black" d="M665,-943.93C665,-936.17 665,-926.78 665,-918.06"/>
<polygon fill="black" stroke="black" points="668.5,-917.9 665,-907.9 661.5,-917.9 668.5,-917.9"/>
</g>
<!-- 140091733445168 -->
<g id="node3" class="node">
<title>140091733445168</title>
<polygon fill="none" stroke="black" points="546.5,-436.5 546.5,-472.5 777.5,-472.5 777.5,-436.5 546.5,-436.5"/>
<text text-anchor="middle" x="557" y="-450.8" font-family="Times,serif" font-size="14.00"> </text>
<polyline fill="none" stroke="black" points="567.5,-436.5 567.5,-472.5 "/>
<text text-anchor="middle" x="618.5" y="-450.8" font-family="Times,serif" font-size="14.00">data 1.0000</text>
<polyline fill="none" stroke="black" points="669.5,-436.5 669.5,-472.5 "/>
<text text-anchor="middle" x="723.5" y="-450.8" font-family="Times,serif" font-size="14.00">grad &#45;0.1036</text>
</g>
<!-- 140091733445216+ -->
<g id="node6" class="node">
<title>140091733445216+</title>
<ellipse fill="none" stroke="black" cx="475" cy="-382" rx="27" ry="18"/>
<text text-anchor="middle" x="475" y="-378.3" font-family="Times,serif" font-size="14.00">+</text>
</g>
<!-- 140091733445168&#45;&gt;140091733445216+ -->
<g id="edge13" class="edge">
<title>140091733445168&#45;&gt;140091733445216+</title>
<path fill="none" stroke="black" d="M616.73,-436.43C583.03,-423.73 537.82,-406.69 507.62,-395.3"/>
<polygon fill="black" stroke="black" points="508.58,-391.92 497.99,-391.67 506.11,-398.47 508.58,-391.92"/>
</g>
<!-- 140091733444160 -->
<g id="node4" class="node">
<title>140091733444160</title>
<polygon fill="none" stroke="black" points="245,-871.5 245,-907.5 477,-907.5 477,-871.5 245,-871.5"/>
<text text-anchor="middle" x="258" y="-885.8" font-family="Times,serif" font-size="14.00">b</text>
<polyline fill="none" stroke="black" points="271,-871.5 271,-907.5 "/>
<text text-anchor="middle" x="322" y="-885.8" font-family="Times,serif" font-size="14.00">data 6.8814</text>
<polyline fill="none" stroke="black" points="373,-871.5 373,-907.5 "/>
<text text-anchor="middle" x="425" y="-885.8" font-family="Times,serif" font-size="14.00">grad 0.5000</text>
</g>
<!-- 140091733444160&#45;&gt;140091733444352+ -->
<g id="edge12" class="edge">
<title>140091733444160&#45;&gt;140091733444352+</title>
<path fill="none" stroke="black" d="M397.79,-871.43C423.7,-859.42 457.98,-843.52 482.39,-832.2"/>
<polygon fill="black" stroke="black" points="483.95,-835.33 491.55,-827.95 481.01,-828.98 483.95,-835.33"/>
</g>
<!-- 140091733445216 -->
<g id="node5" class="node">
<title>140091733445216</title>
<polygon fill="none" stroke="black" points="342.5,-291.5 342.5,-327.5 607.5,-327.5 607.5,-291.5 342.5,-291.5"/>
<text text-anchor="middle" x="370" y="-305.8" font-family="Times,serif" font-size="14.00">e + 1</text>
<polyline fill="none" stroke="black" points="397.5,-291.5 397.5,-327.5 "/>
<text text-anchor="middle" x="448.5" y="-305.8" font-family="Times,serif" font-size="14.00">data 6.8284</text>
<polyline fill="none" stroke="black" points="499.5,-291.5 499.5,-327.5 "/>
<text text-anchor="middle" x="553.5" y="-305.8" font-family="Times,serif" font-size="14.00">grad &#45;0.1036</text>
</g>
<!-- 140091733445408^&#45;1 -->
<g id="node14" class="node">
<title>140091733445408^&#45;1</title>
<ellipse fill="none" stroke="black" cx="475" cy="-236.5" rx="27.1" ry="18"/>
<text text-anchor="middle" x="475" y="-232.8" font-family="Times,serif" font-size="14.00">^&#45;1</text>
</g>
<!-- 140091733445216&#45;&gt;140091733445408^&#45;1 -->
<g id="edge15" class="edge">
<title>140091733445216&#45;&gt;140091733445408^&#45;1</title>
<path fill="none" stroke="black" d="M475,-291.31C475,-283.29 475,-273.55 475,-264.57"/>
<polygon fill="black" stroke="black" points="478.5,-264.53 475,-254.53 471.5,-264.53 478.5,-264.53"/>
</g>
<!-- 140091733445216+&#45;&gt;140091733445216 -->
<g id="edge2" class="edge">
<title>140091733445216+&#45;&gt;140091733445216</title>
<path fill="none" stroke="black" d="M475,-363.93C475,-356.17 475,-346.78 475,-338.06"/>
<polygon fill="black" stroke="black" points="478.5,-337.9 475,-327.9 471.5,-337.9 478.5,-337.9"/>
</g>
<!-- 140091733444736 -->
<g id="node7" class="node">
<title>140091733444736</title>
<polygon fill="none" stroke="black" points="250,-436.5 250,-472.5 528,-472.5 528,-436.5 250,-436.5"/>
<text text-anchor="middle" x="286" y="-450.8" font-family="Times,serif" font-size="14.00">e^(2*n)</text>
<polyline fill="none" stroke="black" points="322,-436.5 322,-472.5 "/>
<text text-anchor="middle" x="373" y="-450.8" font-family="Times,serif" font-size="14.00">data 5.8284</text>
<polyline fill="none" stroke="black" points="424,-436.5 424,-472.5 "/>
<text text-anchor="middle" x="476" y="-450.8" font-family="Times,serif" font-size="14.00">grad 0.0429</text>
</g>
<!-- 140091733444736&#45;&gt;140091733445216+ -->
<g id="edge11" class="edge">
<title>140091733444736&#45;&gt;140091733445216+</title>
<path fill="none" stroke="black" d="M409.82,-436.43C422.13,-426.34 437.79,-413.5 450.67,-402.94"/>
<polygon fill="black" stroke="black" points="453.16,-405.43 458.68,-396.38 448.72,-400.02 453.16,-405.43"/>
</g>
<!-- 140091733444976+ -->
<g id="node21" class="node">
<title>140091733444976+</title>
<ellipse fill="none" stroke="black" cx="303" cy="-382" rx="27" ry="18"/>
<text text-anchor="middle" x="303" y="-378.3" font-family="Times,serif" font-size="14.00">+</text>
</g>
<!-- 140091733444736&#45;&gt;140091733444976+ -->
<g id="edge22" class="edge">
<title>140091733444736&#45;&gt;140091733444976+</title>
<path fill="none" stroke="black" d="M368.18,-436.43C355.87,-426.34 340.21,-413.5 327.33,-402.94"/>
<polygon fill="black" stroke="black" points="329.28,-400.02 319.32,-396.38 324.84,-405.43 329.28,-400.02"/>
</g>
<!-- 140091733444736e^ -->
<g id="node8" class="node">
<title>140091733444736e^</title>
<ellipse fill="none" stroke="black" cx="389" cy="-527" rx="27" ry="18"/>
<text text-anchor="middle" x="389" y="-523.3" font-family="Times,serif" font-size="14.00">e^</text>
</g>
<!-- 140091733444736e^&#45;&gt;140091733444736 -->
<g id="edge3" class="edge">
<title>140091733444736e^&#45;&gt;140091733444736</title>
<path fill="none" stroke="black" d="M389,-508.93C389,-501.17 389,-491.78 389,-483.06"/>
<polygon fill="black" stroke="black" points="392.5,-482.9 389,-472.9 385.5,-482.9 392.5,-482.9"/>
</g>
<!-- 140091735510752 -->
<g id="node9" class="node">
<title>140091735510752</title>
<polygon fill="none" stroke="black" points="681,-1161.5 681,-1197.5 925,-1197.5 925,-1161.5 681,-1161.5"/>
<text text-anchor="middle" x="700" y="-1175.8" font-family="Times,serif" font-size="14.00">w2</text>
<polyline fill="none" stroke="black" points="719,-1161.5 719,-1197.5 "/>
<text text-anchor="middle" x="770" y="-1175.8" font-family="Times,serif" font-size="14.00">data 1.0000</text>
<polyline fill="none" stroke="black" points="821,-1161.5 821,-1197.5 "/>
<text text-anchor="middle" x="873" y="-1175.8" font-family="Times,serif" font-size="14.00">grad 0.0000</text>
</g>
<!-- 140091733443968* -->
<g id="node23" class="node">
<title>140091733443968*</title>
<ellipse fill="none" stroke="black" cx="810" cy="-1107" rx="27" ry="18"/>
<text text-anchor="middle" x="810" y="-1103.3" font-family="Times,serif" font-size="14.00">*</text>
</g>
<!-- 140091735510752&#45;&gt;140091733443968* -->
<g id="edge18" class="edge">
<title>140091735510752&#45;&gt;140091733443968*</title>
<path fill="none" stroke="black" d="M804.69,-1161.43C805.47,-1153.67 806.4,-1144.28 807.26,-1135.56"/>
<polygon fill="black" stroke="black" points="810.77,-1135.7 808.27,-1125.4 803.8,-1135 810.77,-1135.7"/>
</g>
<!-- 140091733444352 -->
<g id="node10" class="node">
<title>140091733444352</title>
<polygon fill="none" stroke="black" points="397,-726.5 397,-762.5 629,-762.5 629,-726.5 397,-726.5"/>
<text text-anchor="middle" x="410" y="-740.8" font-family="Times,serif" font-size="14.00">n</text>
<polyline fill="none" stroke="black" points="423,-726.5 423,-762.5 "/>
<text text-anchor="middle" x="474" y="-740.8" font-family="Times,serif" font-size="14.00">data 0.8814</text>
<polyline fill="none" stroke="black" points="525,-726.5 525,-762.5 "/>
<text text-anchor="middle" x="577" y="-740.8" font-family="Times,serif" font-size="14.00">grad 0.5000</text>
</g>
<!-- 140091733444592* -->
<g id="node28" class="node">
<title>140091733444592*</title>
<ellipse fill="none" stroke="black" cx="389" cy="-672" rx="27" ry="18"/>
<text text-anchor="middle" x="389" y="-668.3" font-family="Times,serif" font-size="14.00">*</text>
</g>
<!-- 140091733444352&#45;&gt;140091733444592* -->
<g id="edge16" class="edge">
<title>140091733444352&#45;&gt;140091733444592*</title>
<path fill="none" stroke="black" d="M482.98,-726.43C463.18,-715.18 437.39,-700.51 417.83,-689.39"/>
<polygon fill="black" stroke="black" points="419.48,-686.31 409.06,-684.41 416.02,-692.39 419.48,-686.31"/>
</g>
<!-- 140091733444352+&#45;&gt;140091733444352 -->
<g id="edge4" class="edge">
<title>140091733444352+&#45;&gt;140091733444352</title>
<path fill="none" stroke="black" d="M513,-798.93C513,-791.17 513,-781.78 513,-773.06"/>
<polygon fill="black" stroke="black" points="516.5,-772.9 513,-762.9 509.5,-772.9 516.5,-772.9"/>
</g>
<!-- 140091735510800 -->
<g id="node12" class="node">
<title>140091735510800</title>
<polygon fill="none" stroke="black" points="138.5,-1161.5 138.5,-1197.5 387.5,-1197.5 387.5,-1161.5 138.5,-1161.5"/>
<text text-anchor="middle" x="157.5" y="-1175.8" font-family="Times,serif" font-size="14.00">w1</text>
<polyline fill="none" stroke="black" points="176.5,-1161.5 176.5,-1197.5 "/>
<text text-anchor="middle" x="230" y="-1175.8" font-family="Times,serif" font-size="14.00">data &#45;3.0000</text>
<polyline fill="none" stroke="black" points="283.5,-1161.5 283.5,-1197.5 "/>
<text text-anchor="middle" x="335.5" y="-1175.8" font-family="Times,serif" font-size="14.00">grad 1.0000</text>
</g>
<!-- 140091735508784* -->
<g id="node16" class="node">
<title>140091735508784*</title>
<ellipse fill="none" stroke="black" cx="521" cy="-1107" rx="27" ry="18"/>
<text text-anchor="middle" x="521" y="-1103.3" font-family="Times,serif" font-size="14.00">*</text>
</g>
<!-- 140091735510800&#45;&gt;140091735508784* -->
<g id="edge25" class="edge">
<title>140091735510800&#45;&gt;140091735508784*</title>
<path fill="none" stroke="black" d="M325.45,-1161.43C376.05,-1147.61 445.45,-1128.65 486.52,-1117.42"/>
<polygon fill="black" stroke="black" points="487.6,-1120.76 496.32,-1114.74 485.75,-1114 487.6,-1120.76"/>
</g>
<!-- 140091733445408 -->
<g id="node13" class="node">
<title>140091733445408</title>
<polygon fill="none" stroke="black" points="353.5,-145.5 353.5,-181.5 580.5,-181.5 580.5,-145.5 353.5,-145.5"/>
<text text-anchor="middle" x="364" y="-159.8" font-family="Times,serif" font-size="14.00"> </text>
<polyline fill="none" stroke="black" points="374.5,-145.5 374.5,-181.5 "/>
<text text-anchor="middle" x="425.5" y="-159.8" font-family="Times,serif" font-size="14.00">data 0.1464</text>
<polyline fill="none" stroke="black" points="476.5,-145.5 476.5,-181.5 "/>
<text text-anchor="middle" x="528.5" y="-159.8" font-family="Times,serif" font-size="14.00">grad 4.8284</text>
</g>
<!-- 140091733445600* -->
<g id="node26" class="node">
<title>140091733445600*</title>
<ellipse fill="none" stroke="black" cx="389" cy="-91" rx="27" ry="18"/>
<text text-anchor="middle" x="389" y="-87.3" font-family="Times,serif" font-size="14.00">*</text>
</g>
<!-- 140091733445408&#45;&gt;140091733445600* -->
<g id="edge14" class="edge">
<title>140091733445408&#45;&gt;140091733445600*</title>
<path fill="none" stroke="black" d="M448.12,-145.43C437.2,-135.57 423.39,-123.08 411.86,-112.66"/>
<polygon fill="black" stroke="black" points="414.07,-109.95 404.31,-105.84 409.38,-115.14 414.07,-109.95"/>
</g>
<!-- 140091733445408^&#45;1&#45;&gt;140091733445408 -->
<g id="edge5" class="edge">
<title>140091733445408^&#45;1&#45;&gt;140091733445408</title>
<path fill="none" stroke="black" d="M473.06,-218.31C472.16,-210.29 471.06,-200.55 470.05,-191.57"/>
<polygon fill="black" stroke="black" points="473.52,-191.07 468.92,-181.53 466.56,-191.86 473.52,-191.07"/>
</g>
<!-- 140091735508784 -->
<g id="node15" class="node">
<title>140091735508784</title>
<polygon fill="none" stroke="black" points="384.5,-1016.5 384.5,-1052.5 657.5,-1052.5 657.5,-1016.5 384.5,-1016.5"/>
<text text-anchor="middle" x="415.5" y="-1030.8" font-family="Times,serif" font-size="14.00">x1*w1</text>
<polyline fill="none" stroke="black" points="446.5,-1016.5 446.5,-1052.5 "/>
<text text-anchor="middle" x="500" y="-1030.8" font-family="Times,serif" font-size="14.00">data &#45;6.0000</text>
<polyline fill="none" stroke="black" points="553.5,-1016.5 553.5,-1052.5 "/>
<text text-anchor="middle" x="605.5" y="-1030.8" font-family="Times,serif" font-size="14.00">grad 0.5000</text>
</g>
<!-- 140091735508784&#45;&gt;140091733444112+ -->
<g id="edge26" class="edge">
<title>140091735508784&#45;&gt;140091733444112+</title>
<path fill="none" stroke="black" d="M555.86,-1016.43C580,-1004.61 611.81,-989.04 634.86,-977.76"/>
<polygon fill="black" stroke="black" points="636.4,-980.9 643.84,-973.36 633.32,-974.61 636.4,-980.9"/>
</g>
<!-- 140091735508784*&#45;&gt;140091735508784 -->
<g id="edge6" class="edge">
<title>140091735508784*&#45;&gt;140091735508784</title>
<path fill="none" stroke="black" d="M521,-1088.93C521,-1081.17 521,-1071.78 521,-1063.06"/>
<polygon fill="black" stroke="black" points="524.5,-1062.9 521,-1052.9 517.5,-1062.9 524.5,-1062.9"/>
</g>
<!-- 140091735510848 -->
<g id="node17" class="node">
<title>140091735510848</title>
<polygon fill="none" stroke="black" points="943,-1161.5 943,-1197.5 1183,-1197.5 1183,-1161.5 943,-1161.5"/>
<text text-anchor="middle" x="960" y="-1175.8" font-family="Times,serif" font-size="14.00">x2</text>
<polyline fill="none" stroke="black" points="977,-1161.5 977,-1197.5 "/>
<text text-anchor="middle" x="1028" y="-1175.8" font-family="Times,serif" font-size="14.00">data 0.0000</text>
<polyline fill="none" stroke="black" points="1079,-1161.5 1079,-1197.5 "/>
<text text-anchor="middle" x="1131" y="-1175.8" font-family="Times,serif" font-size="14.00">grad 0.5000</text>
</g>
<!-- 140091735510848&#45;&gt;140091733443968* -->
<g id="edge19" class="edge">
<title>140091735510848&#45;&gt;140091733443968*</title>
<path fill="none" stroke="black" d="M1001.76,-1161.43C952.38,-1147.68 884.75,-1128.83 844.4,-1117.59"/>
<polygon fill="black" stroke="black" points="845.09,-1114.14 834.51,-1114.83 843.21,-1120.89 845.09,-1114.14"/>
</g>
<!-- 140091735981360 -->
<g id="node18" class="node">
<title>140091735981360</title>
<polygon fill="none" stroke="black" points="406,-1161.5 406,-1197.5 650,-1197.5 650,-1161.5 406,-1161.5"/>
<text text-anchor="middle" x="423" y="-1175.8" font-family="Times,serif" font-size="14.00">x1</text>
<polyline fill="none" stroke="black" points="440,-1161.5 440,-1197.5 "/>
<text text-anchor="middle" x="491" y="-1175.8" font-family="Times,serif" font-size="14.00">data 2.0000</text>
<polyline fill="none" stroke="black" points="542,-1161.5 542,-1197.5 "/>
<text text-anchor="middle" x="596" y="-1175.8" font-family="Times,serif" font-size="14.00">grad &#45;1.5000</text>
</g>
<!-- 140091735981360&#45;&gt;140091735508784* -->
<g id="edge28" class="edge">
<title>140091735981360&#45;&gt;140091735508784*</title>
<path fill="none" stroke="black" d="M526.31,-1161.43C525.53,-1153.67 524.6,-1144.28 523.74,-1135.56"/>
<polygon fill="black" stroke="black" points="527.2,-1135 522.73,-1125.4 520.23,-1135.7 527.2,-1135"/>
</g>
<!-- 140091733444928 -->
<g id="node19" class="node">
<title>140091733444928</title>
<polygon fill="none" stroke="black" points="0,-436.5 0,-472.5 232,-472.5 232,-436.5 0,-436.5"/>
<text text-anchor="middle" x="10.5" y="-450.8" font-family="Times,serif" font-size="14.00"> </text>
<polyline fill="none" stroke="black" points="21,-436.5 21,-472.5 "/>
<text text-anchor="middle" x="74.5" y="-450.8" font-family="Times,serif" font-size="14.00">data &#45;1.0000</text>
<polyline fill="none" stroke="black" points="128,-436.5 128,-472.5 "/>
<text text-anchor="middle" x="180" y="-450.8" font-family="Times,serif" font-size="14.00">grad 0.1464</text>
</g>
<!-- 140091733444928&#45;&gt;140091733444976+ -->
<g id="edge23" class="edge">
<title>140091733444928&#45;&gt;140091733444976+</title>
<path fill="none" stroke="black" d="M161.27,-436.43C194.97,-423.73 240.18,-406.69 270.38,-395.3"/>
<polygon fill="black" stroke="black" points="271.89,-398.47 280.01,-391.67 269.42,-391.92 271.89,-398.47"/>
</g>
<!-- 140091733444976 -->
<g id="node20" class="node">
<title>140091733444976</title>
<polygon fill="none" stroke="black" points="176.5,-218.5 176.5,-254.5 429.5,-254.5 429.5,-218.5 176.5,-218.5"/>
<text text-anchor="middle" x="200" y="-232.8" font-family="Times,serif" font-size="14.00">e &#45; 1</text>
<polyline fill="none" stroke="black" points="223.5,-218.5 223.5,-254.5 "/>
<text text-anchor="middle" x="274.5" y="-232.8" font-family="Times,serif" font-size="14.00">data 4.8284</text>
<polyline fill="none" stroke="black" points="325.5,-218.5 325.5,-254.5 "/>
<text text-anchor="middle" x="377.5" y="-232.8" font-family="Times,serif" font-size="14.00">grad 0.1464</text>
</g>
<!-- 140091733444976&#45;&gt;140091733445600* -->
<g id="edge20" class="edge">
<title>140091733444976&#45;&gt;140091733445600*</title>
<path fill="none" stroke="black" d="M309.09,-218.44C316.14,-199.69 328.77,-169.04 344,-145 350.89,-134.12 359.86,-123.1 367.98,-113.94"/>
<polygon fill="black" stroke="black" points="370.67,-116.18 374.81,-106.43 365.49,-111.47 370.67,-116.18"/>
</g>
<!-- 140091733444976+&#45;&gt;140091733444976 -->
<g id="edge7" class="edge">
<title>140091733444976+&#45;&gt;140091733444976</title>
<path fill="none" stroke="black" d="M303,-363.98C303,-339.49 303,-294.06 303,-264.83"/>
<polygon fill="black" stroke="black" points="306.5,-264.5 303,-254.5 299.5,-264.5 306.5,-264.5"/>
</g>
<!-- 140091733443968 -->
<g id="node22" class="node">
<title>140091733443968</title>
<polygon fill="none" stroke="black" points="676,-1016.5 676,-1052.5 944,-1052.5 944,-1016.5 676,-1016.5"/>
<text text-anchor="middle" x="707" y="-1030.8" font-family="Times,serif" font-size="14.00">x2*w2</text>
<polyline fill="none" stroke="black" points="738,-1016.5 738,-1052.5 "/>
<text text-anchor="middle" x="789" y="-1030.8" font-family="Times,serif" font-size="14.00">data 0.0000</text>
<polyline fill="none" stroke="black" points="840,-1016.5 840,-1052.5 "/>
<text text-anchor="middle" x="892" y="-1030.8" font-family="Times,serif" font-size="14.00">grad 0.5000</text>
</g>
<!-- 140091733443968&#45;&gt;140091733444112+ -->
<g id="edge21" class="edge">
<title>140091733443968&#45;&gt;140091733444112+</title>
<path fill="none" stroke="black" d="M774.9,-1016.43C750.59,-1004.61 718.56,-989.04 695.35,-977.76"/>
<polygon fill="black" stroke="black" points="696.83,-974.58 686.3,-973.36 693.77,-980.88 696.83,-974.58"/>
</g>
<!-- 140091733443968*&#45;&gt;140091733443968 -->
<g id="edge8" class="edge">
<title>140091733443968*&#45;&gt;140091733443968</title>
<path fill="none" stroke="black" d="M810,-1088.93C810,-1081.17 810,-1071.78 810,-1063.06"/>
<polygon fill="black" stroke="black" points="813.5,-1062.9 810,-1052.9 806.5,-1062.9 813.5,-1062.9"/>
</g>
<!-- 140091733444544 -->
<g id="node24" class="node">
<title>140091733444544</title>
<polygon fill="none" stroke="black" points="151.5,-726.5 151.5,-762.5 378.5,-762.5 378.5,-726.5 151.5,-726.5"/>
<text text-anchor="middle" x="162" y="-740.8" font-family="Times,serif" font-size="14.00"> </text>
<polyline fill="none" stroke="black" points="172.5,-726.5 172.5,-762.5 "/>
<text text-anchor="middle" x="223.5" y="-740.8" font-family="Times,serif" font-size="14.00">data 2.0000</text>
<polyline fill="none" stroke="black" points="274.5,-726.5 274.5,-762.5 "/>
<text text-anchor="middle" x="326.5" y="-740.8" font-family="Times,serif" font-size="14.00">grad 0.2203</text>
</g>
<!-- 140091733444544&#45;&gt;140091733444592* -->
<g id="edge27" class="edge">
<title>140091733444544&#45;&gt;140091733444592*</title>
<path fill="none" stroke="black" d="M295.02,-726.43C314.82,-715.18 340.61,-700.51 360.17,-689.39"/>
<polygon fill="black" stroke="black" points="361.98,-692.39 368.94,-684.41 358.52,-686.31 361.98,-692.39"/>
</g>
<!-- 140091733445600 -->
<g id="node25" class="node">
<title>140091733445600</title>
<polygon fill="none" stroke="black" points="273.5,-0.5 273.5,-36.5 504.5,-36.5 504.5,-0.5 273.5,-0.5"/>
<text text-anchor="middle" x="286" y="-14.8" font-family="Times,serif" font-size="14.00">o</text>
<polyline fill="none" stroke="black" points="298.5,-0.5 298.5,-36.5 "/>
<text text-anchor="middle" x="349.5" y="-14.8" font-family="Times,serif" font-size="14.00">data 0.7071</text>
<polyline fill="none" stroke="black" points="400.5,-0.5 400.5,-36.5 "/>
<text text-anchor="middle" x="452.5" y="-14.8" font-family="Times,serif" font-size="14.00">grad 1.0000</text>
</g>
<!-- 140091733445600*&#45;&gt;140091733445600 -->
<g id="edge9" class="edge">
<title>140091733445600*&#45;&gt;140091733445600</title>
<path fill="none" stroke="black" d="M389,-72.93C389,-65.17 389,-55.78 389,-47.06"/>
<polygon fill="black" stroke="black" points="392.5,-46.9 389,-36.9 385.5,-46.9 392.5,-46.9"/>
</g>
<!-- 140091733444592 -->
<g id="node27" class="node">
<title>140091733444592</title>
<polygon fill="none" stroke="black" points="265.5,-581.5 265.5,-617.5 512.5,-617.5 512.5,-581.5 265.5,-581.5"/>
<text text-anchor="middle" x="286" y="-595.8" font-family="Times,serif" font-size="14.00">2*n</text>
<polyline fill="none" stroke="black" points="306.5,-581.5 306.5,-617.5 "/>
<text text-anchor="middle" x="357.5" y="-595.8" font-family="Times,serif" font-size="14.00">data 1.7627</text>
<polyline fill="none" stroke="black" points="408.5,-581.5 408.5,-617.5 "/>
<text text-anchor="middle" x="460.5" y="-595.8" font-family="Times,serif" font-size="14.00">grad 0.2500</text>
</g>
<!-- 140091733444592&#45;&gt;140091733444736e^ -->
<g id="edge17" class="edge">
<title>140091733444592&#45;&gt;140091733444736e^</title>
<path fill="none" stroke="black" d="M389,-581.43C389,-573.67 389,-564.28 389,-555.56"/>
<polygon fill="black" stroke="black" points="392.5,-555.4 389,-545.4 385.5,-555.4 392.5,-555.4"/>
</g>
<!-- 140091733444592*&#45;&gt;140091733444592 -->
<g id="edge10" class="edge">
<title>140091733444592*&#45;&gt;140091733444592</title>
<path fill="none" stroke="black" d="M389,-653.93C389,-646.17 389,-636.78 389,-628.06"/>
<polygon fill="black" stroke="black" points="392.5,-627.9 389,-617.9 385.5,-627.9 392.5,-627.9"/>
</g>
</g>
</svg>
